<svg id="svg2" xmlns:rdf="http://www.w3.org/1999/02/22-rdf-syntax-ns#" xmlns="http://www.w3.org/2000/svg" viewBox="0 0 650.48 962.96" version="1.1" xmlns:cc="http://creativecommons.org/ns#" xmlns:dc="http://purl.org/dc/elements/1.1/">
 <title id="title2987">UNS</title>
 <g id="g4098" transform="matrix(.18244 0 0 .18244 -8.9297 -6.303)" stroke="#000" stroke-width="10" fill="none">
  <path id="path5171" d="m470.92 2102c-20.159-27.624-17.522-67.834-3.9267-114.1 51.88-118.83 145.08-144.44 290.28-52.761 45.544 18.384 81.649 53.736 105.4 89.009 23.364 34.698 45.057 51.4 33.508 112.76-26.665 103.37-72.724 184.45-203.26 168.48-51.865-6.3091-97.667 7.2725-163.27-44.09-25.393-42.031-74.326-39.231-58.738-159.31z" stroke-linecap="round"/>
  <path id="path5173" d="m530.48 1948.6c54.627-118.08 144.01-24.203 230.85 54.126 17.769 21.355 40.331 34.771 47.695 73.365 26.765 68.05-39.607 106.8-70.824 153.34-31.217 46.532-63.449 69.736-119.85 51.799-131.9-48.621-136.94-112.38-116.43-179.18-41.655-98.874-13.44-104.08-2.4703-132.4 10.344-5.7086 20.679-8.4043 31.041-21.046z"/>
  <g stroke-linecap="round">
   <path id="path5175" d="m740.19 2004.1c-13.265 7.2095-22.831 7.0669-32.413 6.9574-25.59-3.7984-36.343 9.8041-39.521 32.291-0.33993 14.139 3.4362 29.662-18.406 36.572-18.82 17.164-9.4315 25.007-7.1344 35.193-0.51132 15.982-1.0089 26.708-1.5006 35.207-0.43176 57.37 15.283 56.14 25.153 76.122 5.9469 6.4783 13.298 12.493 8.3917 22.557l11.242 9.8887"/>
   <path id="path5177" d="m653.04 1936.3c5.3748 11.751 10.6 23.502 19.626 35.263 10.022 7.4989 14.256 23.63 16.791 42.298"/>
   <path id="path5179" d="m552.98 1959.9c18.958 0.8084 37.95 1.5819 42.209 17.012 24.017 17.77 48.106 35.594 74.504 55.125"/>
   <path id="path5181" d="m517.44 2088 54.911 7.1861c20.655 8.9116 42.291 14.904 70.419 1.5928"/>
   <path id="path5183" d="m625.44 2260.1 14.118-12.639c-3.9094-36.139 3.2606-41.559 14.18-36.583"/>
   <path id="path5185" d="m642.7 2120.7 29.585-2.7395c13.122 9.051 26.253 14.436 39.385 19.822"/>
  </g>
 </g>
 <g id="g4108" transform="matrix(.18244 0 0 .18244 -8.9297 -6.303)" stroke="#000" stroke-width="10" fill="none">
  <path id="path5187" d="m606.23 1524.9c99.024-85.947 172.03-36.305 245.04 13.318 19.715 24.465 39.002 48.929 66.005 73.412 82.689 79.467 67.135 133.4 19.25 178.92-29.845 33.111-58.429 65.595-73.479 91.357-17.249 17.76-33.108 31.385-46.578 37.906-63.743 28.623-88.08-11.297-123.86-31.31-128.56-67.758-174.6-162.14-141.52-282.06 3.6442-46.232 25.388-69.067 55.143-81.546z"/>
  <path id="path5189" d="m621.45 1629.1c-20.799-96.421 29.392-85.75 56.625-109.71 47.313-11.376 86.945-39.078 166.15 17.336 58.991 82.088 41.355 128.17 48.809 186.04 3.6421 55.256-12.948 88.839-35.48 102.72-5.6075 29.806-4.2834 58.33-53.742 84.367-42.09 37.53-71.672 5.2489-102.77-18.579-46.825-12.586-54.347-43.351-53.296-86.055-95.291-41.441-42.007-119.7-26.3-176.13z"/>
  <g stroke-linecap="round">
   <path id="path5191" d="m806.2 1539.5c-9.6886 11.374-22.62 12.934-25.47 45.004 4.3796 32.876-13.677 65.692-31.244 98.51-18.166 17.678-12.269 65.598-17.163 99.955 17.796 16.962 35.636 17.152 53.48 15.633l33.725 29.666"/>
   <path id="path5193" d="m639.73 1641.9c12.074 13.086 21.09 28.2 54.859 26.904 19.255-2.4641 38.507-3.7069 57.724 8.6018"/>
   <path id="path5195" d="m852.38 1653.7c-36.901 6.3442-91.443 3.8098-101.47 23.678"/>
   <path id="path5197" d="m660.45 1798.2c37.577 17.006 53.495-0.8439 73.272-12.484"/>
   <path id="path5199" d="m691.3 1850.4 17.038-52.068"/>
  </g>
 </g>
 <g id="g4126" transform="matrix(.18244 0 0 .18244 -8.9297 -6.303)" stroke="#000" stroke-linecap="round" stroke-width="10" fill="none">
  <path id="path3876" d="m883.2 954.97c-81.594 28.415-86.958 67.621-87.351 107.53-4.1507 175.54 144.86 172.57 173.72 159.08 45.403 5.6227 76.937 0.3992 101.75-10.078 46.334-3.5547 68.651-31.252 76.056-73.939 6.7825-22.914 9.0947-48.078-2.3763-80.179-8.3857-17.929-2.6833-35.117-54.166-55.314-54.286-5.9835-71.47-19.753-93.875-34.729-32.228-34.973-72.317-27.343-113.76-12.367z"/>
  <path id="path3878" d="m960.79 955.17c0.36675 8.6217 6.6302 17.259-14.723 25.824-36.978 29.984-34.475 52.18-26.054 73.208 17.121 32.529 11.016 47.931-6.1789 55.156-53.328 51.726-41.182 62.338-55.407 89.51"/>
  <path id="path3880" d="m894.7 1172.2c49.839-7.0662 89.963-26.773 101.08-84.218 5.8792-33.262-13.377-52.248-39.479-67.345"/>
  <path id="path3882" d="m1075.2 1037.4c-65.132 6.5321-86.084 23.247-77.701 43.762-0.17522 54.123 16.99 41.28 29.157 58.697"/>
  <path id="path3884" d="m967.11 1175.9c9.2429-12.045 6.148-24.122 1.8189-36.202"/>
  <path id="path3886" d="m1021 1021.7c-22.737 20.908-25.033 31.662-25.108 41.314"/>
  <path id="path3888" d="m1096 1016.7c15.967 35.621 0.074 64.802 3.2113 90.526 2.9741 35.859-7.6638 66.384-45.915 86.087-23.521 13.246-52.063 15.948-77.633 17.9"/>
 </g>
 <g id="g4117" transform="matrix(.18244 0 0 .18244 -8.9297 -6.303)" stroke="#000" stroke-linecap="round" stroke-width="10" fill="none">
  <path id="path3063" d="m804.19 1228.2c-97.758 13.946-144.12 64.372-114.53 168.71 31.172 38.293 59.511 79.404 112.42 96.069 18.749-0.3888 35.212 1.496 46.457 8.5723 16.233 4.4402 34.831 4.4102 54.926 1.5523 37.843-20.098 88.727-3.3775 110.04-70.135 17.597-53.414 14.593-100.45-27.815-135.28-83.815-70.093-129.88-64.198-181.51-69.49z"/>
  <path id="path3065" d="m828.12 1235.3c-12.39 14.373-23.91 27.897-19.286 43.381-5.3953 17.92-5.3801 23.185-6.2582 29.792-7.6607 14.232-8.234 17.893-8.506 21.104 0.25586 24.689 4.4057 30.171 8.3548 36.642 11.158 32.676 0.94176 39.567-5.7665 50.689-6.797 11.017-16.294 5.5657-19.814 36.568"/>
  <path id="path3067" d="m900.77 1459.4c-47.478-16.442-50.494-41.655-42.073-69.124-5.0032-44.202 12.994-69.905 25.614-99.933"/>
  <path id="path3069" d="m927.92 1310.2c-19.725 2.3906-39.445 3.0111-59.188 12.521"/>
  <path id="path3071" d="m836.45 1281.8c21.525 18.478 28.193 33.2 35.086 47.979"/>
  <path id="path3073" d="m805.01 1455c9.0761-9.2571 25.766-23.056 53.635-43.522"/>
  <path id="path3890" d="m880.07 1492c37.319-25.388 87.158-4.1283 103.66-80.763 2.9171-24.435 19.642-53.276-18.679-109.53"/>
 </g>
 <g id="g4135" transform="matrix(.18244 0 0 .18244 -8.9297 -6.303)" stroke="#000" stroke-linecap="round" stroke-width="10" fill="none">
  <path id="path3892" d="m1029.7 963.11c-54.046-18.031-79.355-51.018-85.099-94.189-6.6772-42.21 0.69596-83.38 26.185-123.21 22.289-62.026 44.406-58.591 66.544-62.757 19.747 2.4904 37.695 1.358 55.174-0.71763 52.834-2.341 72.515 21.619 85.248 37.292 44.583 59.699 39.66 94.483 50.503 137.2 5.5775 47.168 3.1173 87.5-20.976 109.43-73.307 54.828-85.768 27.963-116.45 25.557-57.13-24.062-42.436-19.737-61.132-28.608z"/>
  <path id="path3894" d="m996.27 901.82c2.5683-58.387 7.4764-113.78 34.851-140.43 27.087-28.376 61.938-48.948 109.63-56.61"/>
  <path id="path3896" d="m1163 756.56c32.326 125.75 46.34 155.43-38.134 77.487"/>
  <path id="path3898" d="m1087.7 877.92c71.171 86.132 23.964 73.393-52.681 36.069"/>
 </g>
 <g id="g4141" transform="matrix(.18244 0 0 .18244 -8.9297 -6.303)" stroke="#000" stroke-linecap="round" stroke-width="10" fill="none">
  <path id="path3900" d="m1197.9 608.38c133.38-87.561 106.06-62.003 163.14-81.47 19.899-7.1119 36.417-8.1753 44.814 5.2898l30.953 31.116c21.035 26.436 19.635 32.048 22.305 41.438 9.909 81.743-1.5425 80.717-3.7507 115.51-15.253 29.612-33.673 56.041-64.838 69.658-19.232 13.568-45.866 12.236-74.158 7.5645l-46.522-11.329c-18.241 2.743-33.956-9.4224-49.948-19.958-33.749-23.691-42.472-57.316-54.075-89.797-2.3344-21.009 3.643-39.62 17.388-55.989z"/>
  <path id="path3902" d="m1235.4 756.75c-17.903-27.841-46.563-50.338-11.796-104.34 31.892-24.886 56.85-32.567 84.607-47.192 23.893-12.029 47.604-23.695 64.714-22.244 71.249-6.84 41.916 10.182 61.166 15.677"/>
  <path id="path3904" d="m1384.9 631.28c6.099 31.904 11.782 64.635 29.116 74.214"/>
  <path id="path3906" d="m1344 763.93c2.5232-27.17-37.09-38.665-69.69-52.769"/>
 </g>
 <g id="g4147" transform="matrix(.18244 0 0 .18244 -8.9297 -6.303)" stroke="#000" stroke-linecap="round" stroke-width="10" fill="none">
  <path id="path3908" d="m1458.4 554.75c0.6515 6.0073 35.733 67.865 44.577 95.807 11.959 30.166 31.002 57.436 81.709 71.766 41.404-5.0843 83.397-6.1716 118.25-55.725l85.685-129.95 15.626-41.339c11.283-29.849-13.152-57.295-36.026-69.06l-62.026-16.542c-36.227-2.3212-60.272-12.939-131.06 8.2776l-66.417 14.481c-24.162 10.655-56.427 6.4844-57.054 60.196 1.2698 20.53-6.7716 39.484 6.7341 62.087z"/>
  <path id="path3910" d="m1522 634.23-15.185-126.76c8.2366 0.0216-9.2676-25.591 21.649-37.012 112.9-43.966 178.14-11.738 196.56-2.0716 18.414 9.6667 34.4 36.102 30.867 63.874-3.5327 27.772-11.264 34.442-16.506 48.233"/>
 </g>
 <g id="g4353" transform="matrix(.18244 0 0 .18244 -8.9297 -6.303)" stroke="#000" stroke-width="10" fill="none">
  <path id="path3912" d="m474.19 3078c-5.3481-37.443-29.281-41.025-10.022-123.3 10.033-58.703 38.808-107.19 103.8-135.94 39.344-5.601 75.203-33.653 120.69 0.316 13.258 11.587 23.135 17.764 31.838 22.497 18.081 18.823 53.225 19.936 70.45 91.564-0.0153 27.296-6.6718 37.862 5.7817 96.567 3.9476 22.622 15.434 36.807 2.3808 78.455-14.068 19.262-12.797 39.659-56.183 56.75-11.907 10.998-106.51 21.376-137.12 20.331-30.608-1.0453-29.085 9.4074-75.772-34.681-18.515-23.374-35.332-32.857-55.845-72.56z"/>
  <path id="path3914" d="m691.17 2848.4c-34.992-52.16-74.046-28.97-113.81 7.4607-22.605 27.15-29.591 55.762-26.947 85.275 0.9732 17.725 8.6828 29.706 25.774 33.688-11.279 6.305-15.787 18.056-15.605 33.58l15.282 89.696c14.57 36.961 26.142 36.765 38.667 48.377 6.6839 3.3823 13.452 6.6808 22.393 7.8173 12.367-4.1705 24.73-6.7262 37.179-42.144-10.526-3.3744 33.194-20.191 1.002-53.446-10.369-11.34 24.689-48.095 4.5157-78.437-10.324-33.385-20.156-62.232-28.252-75.074 21.795-3.5449 15.29-23.36 22.506-35.286"/>
  <path id="path3916" d="m625.53 2898.3 25.844 6.9643"/>
  <path id="path3920" d="m727.05 2973.5c-13.696 6.1675-25.55 16.664-45.71 7.639"/>
  <path id="path3922" d="m643.14 3083.7c16.106-2.4766 28.159-10.658 32.835-29.224"/>
  <path id="path3924" d="m613.26 2974.1c21.387-4.1252 44.935-16.801 62.08-4.1478"/>
  <path id="path3926" d="m680.92 3143.2c13.621-0.4232 26.494 0.7307 42.253-4.1998 22.521-25.157 30.599-25.192 44.922-36.089 2.6946-0.8148 31.079-30.374 10.541-74.973-11.341-22.822-14.092-30.706-9.3586-47.438-11.134-39.018-5.0973-47.802-7.5713-71.572"/>
 </g>
 <g id="g4342" transform="matrix(.18244 0 0 .18244 -8.9297 -6.303)" stroke="#000" stroke-width="10" fill="none">
  <path id="path3928" d="m594.59 3190.4c-32.141 14.94-64.949 24.433-94.976 56.648-24.864 19.581-43.364 54.836-47.741 124.88-2.0872 49.247-14.023 97.237 18.57 150.91 27.983 23.59 10.841 31.618 86.881 71.779 39.173 16.411 67.293 52.594 127.5 31.368 29.127-8.2492 38.965-4.993 88.861-25.63 21.14-4.8161 38.652-16.938 48.393-44.701 10.492-17.963 19.259-42.903 25.208-79.245-2.0426-31.396-6.7746-44.313-11.049-60.374-6.8349-42.214-4.2714-59.8 0.18958-72.414 0.46203-21.263-3.7757-42.539-17.074-63.838-6.9846-23.018-11.583-44.786-52.403-69.965-37.169-27.942-61.292-48.956-172.36-19.417z"/>
  <path id="path3930" d="m665.08 3596.6c14.527-6.9312 14.688-19.036 58.661-15.364 10.636-1.3773 21.269-1.5802 31.939-16.296l23.314-14.594 19.873-17.189c15.506-16.856 19.102-35.066 13.935-54.274-2.7241-21.309-7.0794-47.003-3.3151-50.871 2.0472-13.212-2.0306-34.634-6.7476-56.914 2.1643-28.756 22.562-24.75-4.035-105.18-1.7323-17.147-10.796-25.916-27.518-25.934-13.609-2.6793-17.267-8.9504-34.424-22.504-12.194-7.2158-18.5-14.416-45.633-21.671-20.697 2.6219-41.368-4.259-62.103 12.768l-36.293 32.664c-29.261 24.254-32.395 37.702-34.616 50.772-8.1316 19.519-4.9552 39.068-1.8776 58.616 0.68869 16.661 6.424 30.455 23.176 37.992-8.0462 9.5862-17.076 14.189-20.809 45.635-8.5892 54.607 4.617 68.605 13.556 90.553 17.462 25.377 34.941 44.488 52.414 65.655"/>
  <path id="path3932" d="m713.39 3252.8c-15.719 10.717-28.045 27.411-34.625 54.22 2.8279 20.966 7.6838 37.902 12.789 54.344 4.2984 22.676 16.15 21.401 10.144 76.751-10.77 10.449-13.433 18.22-10.408 24.111 19.472 41.49 12.684 78.134-18.392 110.3"/>
  <path id="path3934" d="m742.86 3522.7c-9.5711-20.787-20.473-40.913-48.138-52.712-3.8175-11.768-16.805-16.442-41.348-12.177"/>
  <path id="path3936" d="m613.91 3384.4c39.142-3.2572 73.528-3.7561 85.322 8.8441"/>
  <path id="path3938" d="m797.47 3408.2c-30.622-8.5033-51.773-25.251-99.088-19.225"/>
  <path id="path3940" d="m786.36 3370.2-42.3 22.303"/>
  <path id="path3942" d="m617.6 3289.6c28.085 5.5333 47.718 11.044 62.026 16.542"/>
  <path id="path3944" d="m654.81 3238.9c11.145 21.868 25.094 43.744 23.104 65.578"/>
 </g>
 <g id="g4332" transform="matrix(.18244 0 0 .18244 -8.9297 -6.303)" stroke="#000" stroke-width="10" fill="none">
  <path id="path3946" d="m800.36 3621.1c20.132-6.2601 42.261 5.8837 64.603 19.997l30.082 34.562c21.195 20.17 30.081 40.309 28.29 60.419-1.9262 35.053 7.4049 70.135 30.759 105.25 14.939 43.093 24.693 84.732-1.1668 116.38-15.793 28.729-34.986 56.088-73.474 75.67-40.243 16.6-75.722 39.186-124.26 45.364-31.724 2.4545-57.488 12.9-108.59-10.629l-69.705-46.734c-11.736-8.5918-22.915-13.402-41.205-66.487-5.9842-49.324-28.957-96.569-1.3314-150l44.232-101.61c20.914-26.116 34.797-54.81 79.5-72.206 26.055-8.4072 43.546-21.514 93.148-16.998z"/>
  <path id="path3948" d="m870.92 3669.6c10.632 22.154 27.187 44.324 27.412 66.451 5.3711 44.656 19.83 75.757 34.203 106.99 8.4017 21.772 21.433 37.916 10.126 83.648-8.0248 28.683-15.496 57.626-57.081 70.54l-71.635 31.709c-20.408 9.6026-48.11 8.2006-77.597 4.1072-28.709-10.318-57.446-9.8725-86.076-50.226-6.1614-12.056-9.7793-29.165-6.7408-59.501"/>
  <path id="path3950" d="m629.8 3900.9c-13.812 0.1574-24.538-4.5079-22.337-29.369 3.2017-47.213-3.2819-95.42 21.057-140.46-0.0426-26.224-1.6722-53.512 18.277-66.332 26.407-19.264 39.045-52.369 94.938-41.993 27.594 6.1214 45.937 6.4274 55.17 1.0065"/>
  <path id="path3952" d="m795.05 3674.6c-10.255 25.894-16.554 50.288-41.594 81.788 10.186 33.711 24.757 45.798 39.506 57 3.6766 9.5172 9.6289 4.8623 6.7521 55.19 3.6083 48.287 35.077 64.901 53.195 96.691"/>
  <path id="path3954" d="m689.31 3889.8c36.253-17.662 72.522-41.063 108.71-32.474"/>
  <path id="path3956" d="m888.71 3789.5c-26.617 41.055-58.958 38.302-89.779 47.179"/>
  <path id="path3958" d="m835.41 3733.3c-21.4 24.118-42.624 48.289-41.587 79.202"/>
  <path id="path3960" d="m647.53 3714.7c24.598 29.084 58.277 45.525 105.92 42.519"/>
 </g>
 <g id="g4325" transform="matrix(.18244 0 0 .18244 -8.9297 -6.303)" stroke="#000" stroke-width="10" fill="none">
  <path id="path3962" d="m953.51 4065.5c84.63 42.063 83.396 64.68 85.954 96.777-6.4067 38.442-4.6963 52.743-4.4977 71.54 1.1438 39.517-23.47 49.904-38.978 70.588-49.733 49.76-76.227 33.678-111.32 41.95-32.268-4.9695-51.931-9.9061-70.651-14.84-52.622-12.773-48.023-32.546-67.975-49.316-25.579-34.325-27.828-78.186-14.319-128.49 11.078-29.924 33.561-52.303 57.09-73.989l57.835-29.159c44.4-18.359 95.267 6.8433 106.86 14.935z"/>
  <path id="path3964" d="m874.2 4062.7c-18.43 3.7066-40.751 6.4503-48.4 47.287 0.15647 17.76-5.5443 31.594-12.186 44.796-8.0215 42.584 12.933 70.774 31.635 100.08 14.52 24.505 32.489 26.956 49.914 32.889 19.003 10.044 33.26 3.31 43.153-18.853 6.0507-12.649 7.3022-31.329 21.64-33.564 6.4761-11.423 7.3337-20.99 6.9755-30.154-8.1532-15.307-1.5443-36.475 1.0088-56.032-33.459-1.6818-41.683-28.467-45.534-59.602-15.568-5.8959-30.507-7.9595-48.206-26.85z"/>
  <path id="path3966" d="m914.23 4250.8c19.846-17.975 19.485-49.498 19.178-80.984-12.194-52.8-34.313-78.04-69.654-66.562"/>
  <path id="path3968" d="m952.25 4217.2c-1.5582-27.086-9.8072-39.223-20.57-45.744"/>
  <path id="path3970" d="m902.58 4087.8 2.523 24.145"/>
 </g>
 <g id="g4318" transform="matrix(.18244 0 0 .18244 -8.9297 -6.303)" stroke="#000" stroke-width="10" fill="none">
  <path id="path3870" d="m938.93 4364.6c-33.56 46.276-41.614 79.474-38.211 106.8 10.039 47.539 15.234 98.558 65.21 117.41 79.755 26.572 96.922 4.5195 129.33-5.696 37.079-18.028 66.236-40.61 87.247-67.875 16.158-11.165 14.951-22.375 15.605-33.58-2.4957-20.817 1.9828-34.871 3.5837-51.715 2.4404-32.671-11.662-55.475-19.613-81.948-23.516-19.148-40.745-45.441-79.186-47.621l-66.374-1.8979c-40.886-2.1426-68.775 33.325-97.587 66.124z"/>
  <path id="path3872" d="m956.15 4374.1c11.858 16.676 26.577 36.308 34.361 46.642 4.1824 7.3794 0.65413 12.577 1.6609 24.142-4.9862 30.018 4.3225 28.074 12.841 34.516 8.6923 6.7408 17.613 13.027 24.075 24.201 7.4145 22.416 17.946 17.432 27.532 20.762l39.637 7.0003c31.446 9.4664 36.391-5.0371 53.464-5.8945"/>
  <path id="path3874" d="m1140.4 4475.5c2.0667 11.446-5.3603 24.224 11.119 33.65"/>
  <path id="path3877" d="m1055 4488.2 73.506-87.739c15.446-18.666 27.261-23.183 28.412 13.868"/>
  <path id="path3879" d="m1043.1 4409.7c7.2005-22.108 27.458-44.181 62.242-66.217-13.472 4.7005-26.909 9.5081-44.83 0.7447-21.243-10.412-31.365 1.564-43.988 8.5056"/>
 </g>
 <g id="g4311" transform="matrix(.18244 0 0 .18244 -8.9297 -6.303)" stroke="#000" stroke-width="10" fill="none">
  <path id="path3881" d="m1220.4 4525.7c57.685-8.1057 108.17-8.3717 118.01 35.654l29.084 86.283c20.91 65.764-1.0445 52.453-4.5022 73.264l-43.236 50.749c-16.523 16.726-34.326 32.551-73.364 33.429-57.235-2.1167-115.15-3.0229-127.36-85.678l-4.9196-96.565c11.869-46.142 24.861-91.627 106.29-97.136z"/>
  <path id="path3883" d="m1149.5 4603.1c16.964 53.735 27.587 115.36 79.845 125.21 40.639 18.533 82.192 48.38 116.41-12.626"/>
  <path id="path3885" d="m1326.9 4686.3c-20.66 12.282-42.138 26.697-44.807-7.876-3.7465-36.035 11.83-52.645 18.309-78.401"/>
  <path id="path3887" d="m1185.7 4602.3c4.8328-21.501 20.658-37.893 55.292-45.545"/>
  <path id="path3889" d="m1203.7 4650.6c11.752 11.211 23.558 2.0862 35.43-32.666 6.1749-26.423 17.12-33.55 27.697-42.169"/>
 </g>
 <g id="g4305" transform="matrix(.18244 0 0 .18244 -8.9297 -6.303)" stroke="#000" stroke-width="10" fill="none">
  <path id="path3891" d="m1438.1 4684.9c-22.073 32.126-83.283 64.15-14.046 96.515"/>
  <path id="path3893" d="m1489.7 4718.6 15.323 74.178c9.964 35.708 20.06 21.005 30.172 0.079"/>
  <path id="path3895" d="m1359.5 4746.7c1.5757 26.184-0.8647 54.936 31.736 61.29 27.723 9.5553 62.502 19.129 73.201 28.64 45.888 25.342 50.168 12.075 68.934 12.25"/>
  <path id="path3897" d="m1527.8 4663.6c-16.382-45.752-56.388-46.275-83.557-24.357l-38.922 49.036-45.805 43.846c-6.6605 20.522-24.578 19.257-3.692 93.094 12.56 39.939 37.821 57.786 68.794 65.698 39.721 11.407 73.73 4.0746 104.35-14.382 20.872-21.504 53.91-31.651 45.04-80.917-8.853-22.156-9.2739-27.336-28.265-69.902-5.9806-20.614-11.988-30.775-17.941-62.116z"/>
 </g>
 <g id="g4301" transform="matrix(.18244 0 0 .18244 -8.9297 -6.303)" stroke="#000" stroke-width="10" fill="none">
  <path id="path3899" d="m1627.6 4732.8c-12.991 28.541-22.196 60.127-45.899 80.053-10.634 10.656-19.789 24.29-7.9685 80.152 12.269 23.274 33.275 36.89 66.282 37.243 26.622-5.0044 49.539-12.139 91.402-8.3814 20.156-4.8702 38.527 1.6612 63.012-30.87 8.0863-15.363 20.681-25.148 0.1986-75.862l-62.712-83.785c-17.014-12.672-18.876-32.184-58.53-34.636-31.009 0.9444-36.823 19.623-45.784 36.087z"/>
  <path id="path3901" d="m1586.7 4885.3c17.114 2.9 33.318 8.4556 52.579 2.7239l31.028 2.6675c21.838 3.2325 40.613 0.2991 60.347-0.7041 29.916-1.5657 60.736-2.703 52.645-22.276"/>
 </g>
 <g id="g4089" transform="matrix(.18244 0 0 .18244 -8.9297 -6.303)" stroke="#000" stroke-width="10" fill="none">
  <path id="path2994" stroke-linejoin="round" d="m624.38 2303.4c57.484 5.2531 109.32 18.931 144.23 50.378 49.842 25.76 81.641 52.762 79.011 82.132 15.953 44.768 3.5367 77.288-5.8074 111.14l-26.554 55.564c-16.796 32.339-51.507 53.866-105.8 63.573-63.917 10.595-127.84 23.303-191.63-13.06-72.63-27.093-76.086-65.528-83.063-103.39-21.436-38.835-35.788-85.598-27.286-157.94 7.5326-33.066 17.106-75.103 63.98-94.316s88.903-9.2449 152.92 5.9168z"/>
  <path id="path3772" d="m453.34 2362.5c-53.366 75.737-16.802 109.1 5.2429 149.31-5.9989 68.163-4.2056 120.57 41.955 114.19 68.055 48.493 117.69 22.464 171.79 14.534 7.76-12.313 8.2527-28.284 29.666-33.725 0 0 47.657-102.22 53.831-118.17 6.174-15.946 11.154-45.511-20.924-77.52 0 0-49.63-51.864-81.517-66.411-15.168-6.9199-33.028-4.8333-49.273-8.5798-33.305-7.6807-98.517-28.427-98.517-28.427-31.247-6.9064-50.68 9.278-52.256 54.793z"/>
  <g stroke-linecap="round">
   <path id="path3774" d="m672.52 2568.7c2.0362-1.3498-33.876-24.229-59.066-33.958-12.881-4.9747-20.583-20.451-23.855-33.865-6.7345-27.609 20.003-62.635 11.489-84.477-8.5145-21.842-26.413-22.824-42.176-29.688-10.553-4.595-16.817-0.7629-33.784-7.1307"/>
   <path id="path3776" stroke-linejoin="round" d="m651.85 2391.2c-22.45 6.6093-50.963 12.192-52.171 22.399"/>
   <g>
    <path id="path3778" d="m527.6 2509.2c9.0774-4.5257 20.762-9.9916 35.226-5.5416 14.464 4.4501 22.015 5.8376 26.779-6.9721"/>
    <path id="path3780" d="m650.16 2501c-21.143-0.867-44.258 11.821-61.938-12.838"/>
    <path id="path4179" d="m602.18 2373.9c5.0958 12.605 7.8121 24.728-1.1568 34.482"/>
   </g>
  </g>
 </g>
 <g id="g4208" transform="matrix(.18244 0 0 .18244 -8.9297 -6.303)" stroke="#000" stroke-width="10" fill="none">
  <path id="path4290" d="m3156.1 2102.4c20.159-27.624 17.522-67.834 3.9267-114.1-51.88-118.83-145.08-144.44-290.28-52.761-45.544 18.384-81.649 53.736-105.4 89.009-23.364 34.698-45.057 51.4-33.508 112.76 26.665 103.37 72.724 184.45 203.26 168.48 51.865-6.3091 97.667 7.2725 163.27-44.09 25.393-42.031 74.326-39.231 58.738-159.31z" stroke-linecap="round"/>
  <path id="path4292" d="m3096.5 1949.1c-54.627-118.08-144.01-24.203-230.84 54.126-17.769 21.355-40.331 34.771-47.695 73.365-26.765 68.05 39.607 106.8 70.824 153.34 31.217 46.532 63.449 69.736 119.85 51.799 131.9-48.621 136.94-112.38 116.43-179.18 41.655-98.874 13.44-104.08 2.4703-132.4-10.344-5.7086-20.679-8.4043-31.041-21.046z"/>
  <g stroke-linecap="round">
   <path id="path4294" d="m2886.8 2004.6c13.265 7.2095 22.831 7.0668 32.413 6.9574 25.59-3.7984 36.343 9.8041 39.521 32.291 0.34 14.139-3.4362 29.662 18.406 36.572 18.82 17.164 9.4315 25.007 7.1344 35.193 0.5113 15.982 1.0089 26.708 1.5007 35.207 0.4317 57.37-15.283 56.14-25.153 76.122-5.9468 6.4783-13.298 12.493-8.3916 22.557l-11.242 9.8887"/>
   <path id="path4296" d="m2973.9 1936.7c-5.3748 11.751-10.6 23.502-19.626 35.263-10.022 7.4989-14.256 23.63-16.791 42.298"/>
   <path id="path4298" d="m3074 1960.4c-18.958 0.8084-37.95 1.5819-42.209 17.012-24.017 17.77-48.106 35.594-74.504 55.125"/>
   <path id="path4300" d="m3109.6 2088.5-54.911 7.1861c-20.655 8.9116-42.291 14.904-70.419 1.5928"/>
   <path id="path4302" d="m3001.6 2260.6-14.118-12.639c3.9094-36.139-3.2606-41.559-14.18-36.583"/>
   <path id="path4304" d="m2984.3 2121.2-29.585-2.7395c-13.122 9.051-26.253 14.436-39.385 19.822"/>
  </g>
 </g>
 <g id="g4199" transform="matrix(.18244 0 0 .18244 -8.9297 -6.303)" stroke="#000" stroke-width="10" fill="none">
  <path id="path4306" d="m3020.8 1525.3c-99.024-85.947-172.03-36.305-245.04 13.318-19.716 24.465-39.002 48.929-66.005 73.412-82.689 79.467-67.135 133.4-19.25 178.92 29.845 33.111 58.429 65.595 73.479 91.357 17.249 17.76 33.108 31.385 46.578 37.906 63.743 28.623 88.08-11.297 123.86-31.31 128.56-67.758 174.6-162.14 141.52-282.06-3.6442-46.232-25.388-69.067-55.143-81.546z"/>
  <path id="path4308" d="m3005.5 1629.6c20.799-96.421-29.392-85.75-56.625-109.71-47.313-11.376-86.945-39.078-166.15 17.336-58.991 82.088-41.355 128.17-48.809 186.04-3.6421 55.256 12.948 88.839 35.48 102.72 5.6074 29.806 4.2833 58.33 53.742 84.367 42.09 37.53 71.672 5.2489 102.77-18.579 46.825-12.586 54.346-43.351 53.296-86.055 95.291-41.441 42.007-119.7 26.3-176.13z"/>
  <g stroke-linecap="round">
   <path id="path4310" d="m2820.8 1539.9c9.6886 11.374 22.62 12.934 25.47 45.004-4.3796 32.876 13.677 65.692 31.244 98.51 18.166 17.678 12.269 65.598 17.163 99.955-17.796 16.962-35.636 17.152-53.48 15.633l-33.725 29.666"/>
   <path id="path4312" d="m2987.3 1642.3c-12.074 13.086-21.09 28.2-54.859 26.904-19.255-2.4641-38.508-3.7069-57.724 8.6018"/>
   <path id="path4314" d="m2774.6 1654.1c36.901 6.3441 91.442 3.8098 101.47 23.678"/>
   <path id="path4316" d="m2966.5 1798.7c-37.577 17.006-53.495-0.8439-73.272-12.484"/>
   <path id="path4318" d="m2935.7 1850.9-17.038-52.068"/>
  </g>
 </g>
 <g id="g4167" transform="matrix(.18244 0 0 .18244 -8.9297 -6.303)" stroke="#000" stroke-linecap="round" stroke-width="10" fill="none">
  <path id="path4332" d="m2743.8 955.44c81.594 28.415 86.958 67.621 87.351 107.53 4.1507 175.54-144.86 172.57-173.72 159.08-45.403 5.6227-76.937 0.3992-101.75-10.078-46.334-3.5547-68.651-31.252-76.056-73.939-6.7825-22.914-9.0947-48.078 2.3763-80.179 8.3857-17.929 2.6833-35.117 54.166-55.314 54.286-5.9835 71.47-19.753 93.875-34.729 32.228-34.973 72.317-27.343 113.76-12.367z"/>
  <path id="path4334" d="m2666.2 955.65c-0.3668 8.6217-6.6303 17.259 14.723 25.824 36.978 29.984 34.475 52.18 26.054 73.208-17.121 32.529-11.016 47.931 6.1789 55.156 53.328 51.726 41.182 62.338 55.407 89.51"/>
  <path id="path4336" d="m2732.3 1172.7c-49.839-7.0662-89.963-26.773-101.08-84.218-5.8792-33.262 13.377-52.248 39.479-67.345"/>
  <path id="path4338" d="m2551.8 1037.8c65.132 6.5321 86.084 23.247 77.701 43.762 0.1753 54.123-16.99 41.28-29.157 58.697"/>
  <path id="path4340" d="m2659.9 1176.4c-9.2429-12.045-6.148-24.122-1.8189-36.202"/>
  <path id="path4342" d="m2606 1022.2c22.738 20.908 25.033 31.662 25.108 41.314"/>
  <path id="path4344" d="m2531 1017.2c-15.967 35.621-0.074 64.802-3.2113 90.526-2.9741 35.859 7.6638 66.384 45.915 86.087 23.521 13.246 52.063 15.948 77.633 17.9"/>
 </g>
 <g id="g4190" transform="matrix(.18244 0 0 .18244 -8.9297 -6.303)" stroke="#000" stroke-linecap="round" stroke-width="10" fill="none">
  <path id="path4320" d="m2822.8 1228.7c97.758 13.946 144.12 64.372 114.53 168.71-31.172 38.293-59.511 79.404-112.42 96.069-18.749-0.3888-35.212 1.4959-46.457 8.5723-16.233 4.4402-34.831 4.4102-54.926 1.5523-37.843-20.098-88.727-3.3775-110.04-70.135-17.597-53.414-14.593-100.45 27.815-135.28 83.815-70.093 129.88-64.198 181.51-69.49z"/>
  <path id="path4322" d="m2798.9 1235.8c12.39 14.373 23.91 27.897 19.286 43.381 5.3953 17.92 5.38 23.185 6.2582 29.792 7.6607 14.232 8.234 17.893 8.5059 21.104-0.2558 24.689-4.4056 30.171-8.3548 36.642-11.158 32.676-0.9417 39.567 5.7666 50.689 6.797 11.017 16.294 5.5656 19.814 36.568"/>
  <path id="path4324" d="m2726.2 1459.9c47.478-16.442 50.494-41.655 42.073-69.124 5.0031-44.202-12.994-69.905-25.614-99.933"/>
  <path id="path4326" d="m2699.1 1310.7c19.725 2.3905 39.445 3.0111 59.188 12.521"/>
  <path id="path4328" d="m2790.5 1282.3c-21.525 18.478-28.193 33.2-35.086 47.979"/>
  <path id="path4330" d="m2822 1455.4c-9.0761-9.2572-25.766-23.056-53.635-43.522"/>
  <path id="path4346" d="m2746.9 1492.5c-37.319-25.388-87.158-4.1284-103.66-80.763-2.9171-24.435-19.642-53.276 18.679-109.53"/>
 </g>
 <g id="g4161" transform="matrix(.18244 0 0 .18244 -8.9297 -6.303)" stroke="#000" stroke-linecap="round" stroke-width="10" fill="none">
  <path id="path4348" d="m2597.3 963.58c54.046-18.031 79.355-51.018 85.098-94.189 6.6773-42.21-0.6959-83.38-26.185-123.21-22.289-62.026-44.406-58.591-66.544-62.757-19.747 2.4904-37.695 1.358-55.174-0.71762-52.834-2.341-72.515 21.619-85.248 37.292-44.583 59.699-39.66 94.483-50.503 137.2-5.5775 47.168-3.1173 87.5 20.976 109.43 73.307 54.828 85.768 27.963 116.45 25.557 57.13-24.062 42.436-19.737 61.132-28.608z"/>
  <path id="path4350" d="m2630.7 902.29c-2.5682-58.387-7.4764-113.78-34.85-140.43-27.087-28.376-61.938-48.948-109.63-56.61"/>
  <path id="path4352" d="m2464 757.04c-32.326 125.75-46.34 155.43 38.134 77.487"/>
  <path id="path4354" d="m2539.3 878.39c-71.171 86.132-23.964 73.393 52.681 36.069"/>
 </g>
 <g id="g4155" transform="matrix(.18244 0 0 .18244 -8.9297 -6.303)" stroke="#000" stroke-linecap="round" stroke-width="10" fill="none">
  <path id="path4356" d="m2429.1 608.85c-133.38-87.561-106.06-62.003-163.14-81.47-19.899-7.1119-36.417-8.1753-44.814 5.2898l-30.953 31.116c-21.035 26.436-19.635 32.048-22.305 41.438-9.909 81.743 1.5425 80.717 3.7507 115.51 15.253 29.612 33.673 56.041 64.838 69.658 19.232 13.568 45.866 12.236 74.158 7.5645l46.522-11.329c18.241 2.743 33.956-9.4224 49.948-19.958 33.749-23.691 42.472-57.316 54.075-89.797 2.3344-21.009-3.643-39.62-17.388-55.989z"/>
  <path id="path4358" d="m2391.5 757.23c17.903-27.841 46.563-50.338 11.796-104.34-31.892-24.886-56.85-32.567-84.607-47.192-23.893-12.029-47.604-23.695-64.714-22.244-71.249-6.84-41.916 10.182-61.166 15.677"/>
  <path id="path4360" d="m2242.1 631.75c-6.099 31.904-11.782 64.635-29.116 74.214"/>
  <path id="path4362" d="m2282.9 764.41c-2.5232-27.17 37.09-38.665 69.69-52.769"/>
 </g>
 <g id="g4151" transform="matrix(.18244 0 0 .18244 -8.9297 -6.303)" stroke="#000" stroke-linecap="round" stroke-width="10" fill="none">
  <path id="path4364" d="m2168.6 555.22c-0.6515 6.0073-35.733 67.865-44.577 95.807-11.959 30.166-31.002 57.436-81.709 71.766-41.404-5.0843-83.397-6.1716-118.25-55.725l-85.685-129.95-15.626-41.339c-11.283-29.849 13.152-57.295 36.026-69.06l62.026-16.542c36.227-2.3212 60.272-12.939 131.06 8.2776l66.417 14.481c24.162 10.655 56.427 6.4844 57.054 60.196-1.2698 20.53 6.7716 39.484-6.7341 62.087z"/>
  <path id="path4366" d="m2105 634.7 15.185-126.76c-8.2366 0.0216 9.2676-25.591-21.649-37.012-112.9-43.966-178.14-11.738-196.56-2.0716-18.414 9.6667-34.4 36.102-30.867 63.874 3.5328 27.772 11.264 34.442 16.506 48.233"/>
 </g>
 <g id="g4227" transform="matrix(.18244 0 0 .18244 -8.9297 -6.303)" stroke="#000" stroke-width="10" fill="none">
  <path id="path4368" d="m3152.8 3078.5c5.3481-37.443 29.281-41.025 10.022-123.3-10.033-58.703-38.808-107.19-103.8-135.94-39.344-5.601-75.203-33.653-120.69 0.316-13.258 11.587-23.135 17.764-31.838 22.497-18.081 18.823-53.225 19.936-70.45 91.564 0.015 27.296 6.6718 37.862-5.7816 96.567-3.9477 22.622-15.434 36.807-2.3809 78.455 14.068 19.262 12.797 39.659 56.183 56.75 11.907 10.998 106.51 21.376 137.12 20.331 30.608-1.0453 29.085 9.4074 75.772-34.681 18.515-23.374 35.332-32.857 55.845-72.56z"/>
  <path id="path4370" d="m2935.8 2848.9c34.992-52.16 74.046-28.97 113.81 7.4607 22.605 27.15 29.591 55.762 26.947 85.275-0.9732 17.725-8.6827 29.706-25.774 33.688 11.279 6.3051 15.787 18.056 15.605 33.58l-15.282 89.696c-14.57 36.961-26.142 36.765-38.667 48.377-6.6838 3.3823-13.452 6.6808-22.393 7.8173-12.367-4.1705-24.73-6.7262-37.179-42.144 10.526-3.3744-33.194-20.191-1.002-53.446 10.369-11.34-24.689-48.095-4.5157-78.437 10.324-33.385 20.156-62.232 28.252-75.074-21.795-3.5448-15.29-23.36-22.506-35.286"/>
  <path id="path4372" d="m3001.5 2898.7-25.844 6.9642"/>
  <path id="path4374" d="m2899.9 2974c13.696 6.1675 25.55 16.664 45.71 7.6389"/>
  <path id="path4376" d="m2983.8 3084.1c-16.106-2.4766-28.159-10.658-32.835-29.224"/>
  <path id="path4378" d="m3013.7 2974.6c-21.387-4.1252-44.935-16.801-62.08-4.1478"/>
  <path id="path4380" d="m2946.1 3143.7c-13.621-0.4232-26.494 0.7307-42.252-4.1998-22.521-25.157-30.599-25.192-44.922-36.089-2.6946-0.8148-31.079-30.374-10.541-74.973 11.341-22.822 14.092-30.706 9.3586-47.438 11.134-39.018 5.0973-47.802 7.5713-71.572"/>
 </g>
 <g id="g4236" transform="matrix(.18244 0 0 .18244 -8.9297 -6.303)" stroke="#000" stroke-width="10" fill="none">
  <path id="path4382" d="m3032.4 3190.9c32.141 14.94 64.949 24.433 94.976 56.648 24.864 19.581 43.364 54.836 47.741 124.88 2.0873 49.247 14.022 97.237-18.57 150.91-27.983 23.59-10.841 31.618-86.881 71.78-39.173 16.411-67.293 52.594-127.5 31.368-29.127-8.2492-38.964-4.993-88.86-25.63-21.14-4.8161-38.652-16.938-48.393-44.701-10.492-17.963-19.259-42.903-25.208-79.245 2.0426-31.396 6.7745-44.313 11.049-60.374 6.835-42.214 4.2715-59.8-0.1895-72.414-0.4621-21.263 3.7756-42.539 17.074-63.838 6.9846-23.018 11.583-44.785 52.403-69.965 37.169-27.942 61.292-48.956 172.36-19.417z"/>
  <path id="path4384" d="m2961.9 3597.1c-14.527-6.9312-14.688-19.036-58.661-15.364-10.636-1.3773-21.268-1.5802-31.939-16.296l-23.314-14.594-19.873-17.19c-15.506-16.856-19.102-35.066-13.935-54.274 2.724-21.309 7.0793-47.003 3.3151-50.871-2.0472-13.212 2.0305-34.634 6.7476-56.914-2.1644-28.756-22.562-24.75 4.0349-105.18 1.7323-17.147 10.796-25.916 27.518-25.934 13.609-2.6793 17.267-8.9504 34.424-22.504 12.194-7.2158 18.5-14.416 45.633-21.671 20.697 2.6219 41.368-4.259 62.103 12.768l36.292 32.664c29.262 24.254 32.395 37.702 34.616 50.772 8.1316 19.519 4.9553 39.068 1.8776 58.616-0.6887 16.66-6.424 30.455-23.176 37.992 8.0463 9.5862 17.076 14.189 20.809 45.635 8.5892 54.608-4.6169 68.605-13.556 90.553-17.462 25.377-34.941 44.488-52.414 65.655"/>
  <path id="path4386" d="m2913.6 3253.3c15.72 10.717 28.044 27.411 34.625 54.22-2.8279 20.966-7.6838 37.902-12.789 54.344-4.2983 22.676-16.15 21.401-10.144 76.751 10.77 10.449 13.433 18.22 10.408 24.111-19.472 41.49-12.684 78.134 18.392 110.3"/>
  <path id="path4388" d="m2884.1 3523.2c9.5711-20.787 20.473-40.913 48.138-52.712 3.8175-11.768 16.805-16.442 41.348-12.177"/>
  <path id="path4390" d="m3013.1 3384.9c-39.142-3.2572-73.528-3.7561-85.322 8.8441"/>
  <path id="path4392" d="m2829.5 3408.7c30.622-8.5033 51.773-25.251 99.088-19.225"/>
  <path id="path4394" d="m2840.6 3370.7 42.3 22.303"/>
  <path id="path4396" d="m3009.4 3290.1c-28.085 5.5333-47.718 11.044-62.026 16.542"/>
  <path id="path4398" d="m2972.2 3239.3c-11.145 21.868-25.094 43.744-23.104 65.578"/>
 </g>
 <g id="g4247" transform="matrix(.18244 0 0 .18244 -8.9297 -6.303)" stroke="#000" stroke-width="10" fill="none">
  <path id="path4400" d="m2826.6 3621.6c-20.132-6.2601-42.261 5.8837-64.603 19.997l-30.082 34.562c-21.195 20.17-30.081 40.309-28.29 60.419 1.9262 35.053-7.4049 70.135-30.759 105.25-14.939 43.093-24.693 84.732 1.1667 116.38 15.792 28.729 34.986 56.088 73.474 75.67 40.243 16.6 75.722 39.186 124.26 45.364 31.724 2.4545 57.488 12.9 108.59-10.629l69.706-46.734c11.736-8.5918 22.914-13.402 41.205-66.487 5.9841-49.324 28.956-96.569 1.3314-150l-44.232-101.61c-20.914-26.117-34.797-54.81-79.5-72.206-26.055-8.4072-43.546-21.514-93.148-16.998z"/>
  <path id="path4402" d="m2756.1 3670.1c-10.632 22.154-27.187 44.324-27.412 66.451-5.3711 44.656-19.83 75.757-34.203 106.99-8.4017 21.772-21.433 37.916-10.126 83.648 8.0248 28.683 15.496 57.626 57.081 70.54l71.635 31.709c20.408 9.6026 48.11 8.2006 77.597 4.1072 28.709-10.318 57.446-9.8725 86.076-50.226 6.1615-12.056 9.7793-29.165 6.7408-59.501"/>
  <path id="path4404" d="m2997.2 3901.3c13.812 0.1574 24.538-4.5079 22.337-29.369-3.2018-47.213 3.2818-95.42-21.058-140.46 0.043-26.224 1.6722-53.512-18.277-66.332-26.407-19.264-39.045-52.369-94.938-41.993-27.594 6.1214-45.937 6.4274-55.17 1.0065"/>
  <path id="path4406" d="m2831.9 3675c10.255 25.894 16.554 50.288 41.594 81.788-10.186 33.711-24.756 45.798-39.506 57-3.6766 9.5172-9.6289 4.8623-6.7521 55.19-3.6083 48.287-35.077 64.901-53.195 96.691"/>
  <path id="path4408" d="m2937.7 3890.3c-36.253-17.662-72.522-41.063-108.71-32.474"/>
  <path id="path4410" d="m2738.3 3789.9c26.617 41.055 58.958 38.302 89.779 47.179"/>
  <path id="path4412" d="m2791.6 3733.8c21.4 24.118 42.624 48.289 41.587 79.202"/>
  <path id="path4414" d="m2979.5 3715.2c-24.598 29.084-58.277 45.525-105.92 42.519"/>
 </g>
 <g id="g4271" transform="matrix(.18244 0 0 .18244 -8.9297 -6.303)" stroke="#000" stroke-width="10" fill="none">
  <path id="path4416" d="m2673.5 4066c-84.63 42.063-83.396 64.68-85.954 96.777 6.4067 38.442 4.6963 52.743 4.4977 71.54-1.1438 39.517 23.47 49.904 38.978 70.588 49.733 49.76 76.227 33.678 111.32 41.95 32.268-4.9696 51.931-9.9061 70.651-14.84 52.622-12.773 48.024-32.546 67.974-49.316 25.579-34.325 27.828-78.186 14.319-128.49-11.078-29.924-33.561-52.303-57.09-73.989l-57.835-29.159c-44.4-18.359-95.267 6.8433-106.86 14.935z"/>
  <path id="path4418" d="m2752.8 4063.2c18.43 3.7066 40.751 6.4503 48.4 47.287-0.1565 17.76 5.5443 31.594 12.186 44.796 8.0215 42.584-12.934 70.774-31.635 100.08-14.52 24.505-32.489 26.956-49.914 32.889-19.003 10.044-33.26 3.31-43.153-18.853-6.0507-12.649-7.3022-31.329-21.64-33.564-6.4761-11.423-7.3336-20.99-6.9755-30.154 8.1532-15.307 1.5443-36.475-1.0087-56.032 33.459-1.6818 41.683-28.467 45.534-59.602 15.568-5.8959 30.507-7.9595 48.206-26.85z"/>
  <path id="path4420" d="m2712.8 4251.2c-19.846-17.975-19.485-49.498-19.178-80.985 12.194-52.799 34.313-78.04 69.654-66.562"/>
  <path id="path4422" d="m2674.7 4217.7c1.5583-27.086 9.8072-39.223 20.57-45.744"/>
  <path id="path4424" d="m2724.4 4088.3-2.523 24.145"/>
 </g>
 <g id="g4278" transform="matrix(.18244 0 0 .18244 -8.9297 -6.303)" stroke="#000" stroke-width="10" fill="none">
  <path id="path4426" d="m2688.1 4365.1c33.56 46.276 41.614 79.474 38.211 106.8-10.039 47.539-15.234 98.558-65.21 117.41-79.755 26.572-96.922 4.5196-129.33-5.6959-37.079-18.028-66.236-40.61-87.247-67.875-16.158-11.165-14.951-22.375-15.605-33.58 2.4957-20.817-1.9828-34.871-3.5837-51.715-2.4404-32.671 11.662-55.475 19.613-81.948 23.516-19.148 40.745-45.441 79.186-47.621l66.374-1.8979c40.886-2.1426 68.776 33.325 97.587 66.124z"/>
  <path id="path4428" d="m2670.8 4374.6c-11.858 16.676-26.576 36.308-34.361 46.642-4.1824 7.3794-0.6541 12.577-1.6609 24.142 4.9861 30.018-4.3225 28.074-12.841 34.516-8.6923 6.7408-17.613 13.027-24.075 24.201-7.4145 22.416-17.946 17.432-27.532 20.762l-39.637 7.0003c-31.446 9.4664-36.391-5.0371-53.464-5.8945"/>
  <path id="path4430" d="m2486.6 4476c-2.0667 11.446 5.3603 24.224-11.119 33.65"/>
  <path id="path4432" d="m2572 4488.7-73.506-87.739c-15.446-18.666-27.261-23.183-28.412 13.868"/>
  <path id="path4434" d="m2583.9 4410.2c-7.2005-22.108-27.458-44.181-62.242-66.217 13.472 4.7005 26.909 9.5081 44.83 0.7447 21.243-10.412 31.365 1.564 43.988 8.5056"/>
 </g>
 <g id="g4285" transform="matrix(.18244 0 0 .18244 -8.9297 -6.303)" stroke="#000" stroke-width="10" fill="none">
  <path id="path4436" d="m2406.6 4526.2c-57.685-8.1056-108.17-8.3716-118.01 35.654l-29.085 86.283c-20.91 65.764 1.0445 52.453 4.5022 73.264l43.236 50.749c16.523 16.726 34.326 32.551 73.364 33.429 57.235-2.1167 115.15-3.0229 127.36-85.679l4.9196-96.565c-11.869-46.142-24.861-91.627-106.29-97.136z"/>
  <path id="path4438" d="m2477.5 4603.6c-16.964 53.735-27.587 115.36-79.845 125.21-40.639 18.533-82.192 48.38-116.41-12.626"/>
  <path id="path4440" d="m2300.1 4686.8c20.66 12.282 42.138 26.697 44.807-7.876 3.7465-36.035-11.83-52.645-18.309-78.401"/>
  <path id="path4442" d="m2441.3 4602.8c-4.8328-21.501-20.658-37.893-55.292-45.545"/>
  <path id="path4444" d="m2423.3 4651.1c-11.752 11.211-23.558 2.0862-35.43-32.666-6.1749-26.423-17.12-33.55-27.697-42.169"/>
 </g>
 <g id="g4292" transform="matrix(.18244 0 0 .18244 -8.9297 -6.303)" stroke="#000" stroke-width="10" fill="none">
  <path id="path4446" d="m2188.9 4685.4c22.073 32.126 83.283 64.15 14.046 96.515"/>
  <path id="path4448" d="m2137.3 4719.1-15.323 74.178c-9.964 35.708-20.06 21.005-30.172 0.079"/>
  <path id="path4450" d="m2267.5 4747.2c-1.5757 26.184 0.8647 54.936-31.736 61.29-27.723 9.5553-62.502 19.129-73.201 28.64-45.888 25.342-50.168 12.075-68.934 12.249"/>
 </g>
 <path id="path4452" d="m374.05 844.62c2.9889-8.347 10.288-8.4426 15.244-4.4437l7.101 8.9463 8.3567 7.9994c1.2152 3.7441 4.4841 3.5132 0.67359 16.984-2.2915 7.2866-6.9002 10.543-12.551 11.986-7.2469 2.0812-13.452 0.7434-19.038-2.6239-3.8079-3.9232-9.8354-5.7745-8.2172-14.763 1.6152-4.0421 1.692-4.9873 5.1568-12.753 1.0911-3.7609 2.1872-5.6146 3.2732-11.333z" stroke="#000" stroke-width="1.8244" fill="none"/>
 <g id="g4297" transform="matrix(.18244 0 0 .18244 -8.9297 -6.303)" stroke="#000" stroke-width="10" fill="none">
  <path id="path4454" d="m1999.4 4733.3c12.991 28.541 22.196 60.127 45.899 80.053 10.634 10.656 19.789 24.29 7.9685 80.152-12.269 23.274-33.275 36.89-66.282 37.243-26.622-5.0044-49.539-12.139-91.402-8.3814-20.156-4.8702-38.527 1.6612-63.012-30.87-8.0863-15.363-20.681-25.148-0.1986-75.862l62.712-83.785c17.014-12.672 18.876-32.184 58.53-34.636 31.009 0.9444 36.823 19.623 45.784 36.087z"/>
  <path id="path4456" d="m2040.3 4885.7c-17.114 2.9-33.318 8.4556-52.579 2.7239l-31.028 2.6675c-21.838 3.2325-40.613 0.2991-60.347-0.7041-29.916-1.5657-60.736-2.703-52.645-22.276"/>
 </g>
 <g id="g4218" transform="matrix(.18244 0 0 .18244 -8.9297 -6.303)" stroke="#000" stroke-width="10" fill="none">
  <path id="path4278" stroke-linejoin="round" d="m3002.6 2303.9c-57.484 5.2531-109.32 18.931-144.23 50.378-49.842 25.76-81.641 52.762-79.011 82.132-15.954 44.768-3.5367 77.288 5.8074 111.14l26.554 55.564c16.796 32.339 51.507 53.866 105.8 63.573 63.917 10.595 127.84 23.303 191.63-13.06 72.63-27.093 76.086-65.528 83.063-103.39 21.436-38.835 35.788-85.598 27.286-157.94-7.5327-33.066-17.106-75.103-63.98-94.316s-88.903-9.2449-152.92 5.9168z"/>
  <path id="path4280" d="m3173.7 2363c53.366 75.737 16.802 109.1-5.2429 149.31 5.9989 68.163 4.2056 120.57-41.955 114.19-68.055 48.493-117.69 22.464-171.79 14.534-7.76-12.313-8.2527-28.284-29.666-33.725 0 0-47.657-102.22-53.831-118.17-6.174-15.946-11.154-45.511 20.924-77.52 0 0 49.63-51.864 81.517-66.411 15.168-6.9198 33.028-4.8332 49.274-8.5797 33.305-7.6807 98.517-28.427 98.517-28.427 31.247-6.9064 50.68 9.278 52.256 54.793z"/>
  <g stroke-linecap="round">
   <path id="path4282" d="m2954.5 2569.2c-2.0361-1.3498 33.876-24.229 59.066-33.958 12.881-4.9747 20.583-20.451 23.855-33.865 6.7346-27.609-20.003-62.635-11.489-84.477 8.5145-21.842 26.413-22.824 42.176-29.688 10.552-4.595 16.817-0.7629 33.784-7.1308"/>
   <path id="path4284" stroke-linejoin="round" d="m2975.1 2391.7c22.45 6.6093 50.963 12.192 52.172 22.399"/>
   <g>
    <path id="path4286" d="m3099.4 2509.6c-9.0774-4.5257-20.762-9.9916-35.226-5.5416-14.464 4.4501-22.015 5.8375-26.779-6.9721"/>
    <path id="path4288" d="m2976.8 2501.5c21.143-0.867 44.258 11.821 61.938-12.838"/>
    <path id="path4458" d="m3024.8 2374.4c-5.0957 12.605-7.8121 24.728 1.1569 34.482"/>
   </g>
  </g>
 </g>
 <text id="text3176" style="word-spacing:0px;letter-spacing:0px" xml:space="preserve" font-size="72.977px" y="468.48285" x="7.7941628" font-family="Sans" line-height="125%" fill="#000000"><tspan id="tspan3178" x="7.7941628" y="468.48285"/></text>
 <g>
  <g id="Dentition_text_01" transform="matrix(.18244 0 0 .18244 -8.9297 -6.303)" class="Dentition_text">
   <path id="path3317" d="m259.81 2585.7h-21.973v-140.01c-5.2898 5.0457-12.227 10.091-20.813 15.137-8.5857 5.0457-16.296 8.8299-23.132 11.353v-21.24c12.288-5.7779 23.031-12.777 32.227-20.996 9.1959-8.2193 15.706-16.194 19.531-23.926h14.16z"/>
  </g>
  <g id="Dentition_text_02" transform="matrix(.18244 0 0 .18244 -8.9297 -6.303)" class="Dentition_text">
   <path id="path3320" d="m334.19 2097.9v21.118h-118.29c-0.16277-5.2897 0.69172-10.376 2.5635-15.259 3.0111-8.0566 7.8328-15.991 14.465-23.804 6.6324-7.8124 16.215-16.846 28.748-27.1 19.45-15.95 32.593-28.585 39.429-37.903 6.8358-9.3179 10.254-18.127 10.254-26.428-0.0001-8.7076-3.1129-16.052-9.3384-22.034-6.2257-5.9813-14.343-8.972-24.353-8.9722-10.579 0.0002-19.043 3.174-25.391 9.5215-6.3477 6.3478-9.5622 15.137-9.6436 26.367l-22.583-2.3194c1.5462-16.846 7.3649-29.683 17.456-38.513 10.091-8.8296 23.641-13.244 40.649-13.245 17.171 0.0002 30.762 4.7609 40.771 14.282 10.01 9.5216 15.015 21.322 15.015 35.4-0.00013 7.1616-1.465 14.201-4.3945 21.118-2.9298 6.9174-7.7923 14.201-14.587 21.851-6.7954 7.6498-18.087 18.148-33.875 31.494-13.184 11.068-21.647 18.575-25.391 22.522-3.7435 3.947-6.836 7.9143-9.2773 11.902z"/>
  </g>
  <g id="Dentition_text_03" transform="matrix(.18244 0 0 .18244 -8.9297 -6.303)" class="Dentition_text">
   <path id="path3323" d="m302.16 1630.1 21.973-2.9297c2.5228 12.451 6.8156 21.423 12.878 26.916 6.0628 5.4932 13.448 8.2398 22.156 8.2398 10.335 0 19.063-3.5808 26.184-10.742 7.1207-7.1615 10.681-16.032 10.681-26.611-0.0001-10.091-3.296-18.412-9.8877-24.963-6.5919-6.5511-14.974-9.8266-25.146-9.8267-4.1504 0.0001-9.3181 0.8139-15.503 2.4414l2.4414-19.287c1.4648 0.1629 2.6448 0.2442 3.54 0.2441 9.3586 0.0001 17.782-2.4413 25.269-7.3242 7.4869-4.8827 11.23-12.41 11.23-22.583-0.00009-8.0565-2.7263-14.73-8.1787-20.02-5.4526-5.2896-12.492-7.9344-21.118-7.9346-8.545 0.0002-15.666 2.6857-21.362 8.0567-5.6966 5.3712-9.3588 13.428-10.986 24.17l-21.973-3.9063c2.6855-14.73 8.789-26.143 18.311-34.241 9.5214-8.0972 21.362-12.146 35.522-12.146 9.7656 0.0002 18.758 2.0957 26.978 6.2866 8.2193 4.1913 14.506 9.9082 18.86 17.151 4.3537 7.243 6.5306 14.933 6.5308 23.071-0.00012 7.7312-2.0753 14.771-6.2256 21.118-4.1505 6.3477-10.295 11.393-18.433 15.137 10.579 2.4415 18.799 7.5074 24.658 15.198 5.8592 7.6905 8.7889 17.314 8.7891 28.87-0.00012 15.625-5.6967 28.87-17.09 39.734s-25.798 16.296-43.213 16.296c-15.706 0-28.748-4.6793-39.124-14.038s-16.296-21.484-17.761-36.377z"/>
  </g>
  <g id="text3200" transform="matrix(.18244 0 0 .18244 -8.9297 -6.303)" class="Dentition_text">
   <path id="path3326" d="m455.81 1319v-42.847h-77.637v-20.142l81.665-115.97h17.944v115.97h24.17v20.142h-24.17v42.847zm0-62.988v-80.688l-56.03 80.688z"/>
  </g>
  <g id="text3204" transform="matrix(.18244 0 0 .18244 -8.9297 -6.303)" class="Dentition_text">
   <path id="path3329" d="m502.04 972.17 23.071-1.9531c1.709 11.23 5.6762 19.674 11.902 25.33 6.2255 5.6559 13.733 8.4839 22.522 8.4838 10.579 0.0001 19.531-3.9876 26.855-11.963 7.3241-7.9752 10.986-18.555 10.986-31.738-0.00011-12.532-3.5198-22.42-10.559-29.663-7.0395-7.2428-16.256-10.864-27.649-10.864-7.0801 0.0001-13.468 1.6074-19.165 4.8218-5.6967 3.2146-10.173 7.3853-13.428 12.512l-20.63-2.6855 17.334-91.919h88.989v20.996h-71.411l-9.6436 48.096c10.742-7.4869 22.013-11.23 33.813-11.23 15.625 0.00012 28.808 5.4119 39.551 16.235 10.742 10.824 16.113 24.74 16.113 41.748-0.00013 16.195-4.7202 30.192-14.16 41.992-11.475 14.486-27.14 21.728-46.997 21.728-16.276 0-29.561-4.5572-39.856-13.672-10.295-9.1146-16.174-21.2-17.639-36.255z"/>
  </g>
  <g id="text3208" transform="matrix(.18244 0 0 .18244 3.2331 -15.425)" class="Dentition_text">
   <path id="path3332" d="m774.39 567.25-21.851 1.709c-1.9532-8.6262-4.7202-14.892-8.3008-18.799-5.9408-6.2661-13.265-9.3993-21.973-9.3994-6.9988 0.00016-13.143 1.9533-18.433 5.8594-6.9174 5.0457-12.37 12.411-16.357 22.095-3.9877 9.6844-6.0629 23.478-6.2256 41.382 5.2897-8.0565 11.759-14.038 19.409-17.944 7.6497-3.9061 15.666-5.8593 24.048-5.8594 14.648 0.00011 27.12 5.3916 37.415 16.174 10.294 10.783 15.442 24.719 15.442 41.809-0.00013 11.231-2.4212 21.668-7.2632 31.311-4.8422 9.6436-11.495 17.029-19.958 22.156-8.4636 5.127-18.066 7.6904-28.809 7.6904-18.311 0-33.244-6.7342-44.8-20.203-11.556-13.468-17.334-35.665-17.334-66.589-0.00001-34.586 6.3883-59.733 19.165-75.439 11.149-13.672 26.164-20.508 45.044-20.508 14.079 0.00018 25.614 3.9471 34.607 11.841 8.9924 7.894 14.384 18.799 16.174 32.715zm-89.722 77.148c-0.00004 7.5684 1.6072 14.811 4.8218 21.729 3.2145 6.9174 7.7107 12.187 13.489 15.808 5.7779 3.6214 11.841 5.4321 18.188 5.4321 9.2773 0.00001 17.253-3.7435 23.926-11.23 6.6731-7.487 10.01-17.659 10.01-30.518-0.00011-12.37-3.296-22.115-9.8877-29.236-6.5919-7.1207-14.893-10.681-24.902-10.681-9.9284 0.0001-18.351 3.5605-25.269 10.681-6.9174 7.1208-10.376 16.459-10.376 28.015z"/>
  </g>
  <g id="text3212" transform="matrix(.18244 0 0 .18244 22.998 -15.425)" class="Dentition_text">
   <path id="path3335" d="m895.17 296.86v-21.118h115.84v17.09c-11.393 12.126-22.685 28.239-33.875 48.34s-19.836 40.772-25.94 62.012c-4.3946 14.974-7.2022 31.372-8.4228 49.194h-22.583c0.2441-14.079 3.011-31.087 8.3008-51.025 5.2897-19.938 12.878-39.164 22.766-57.678 9.8876-18.514 20.406-34.119 31.555-46.814z"/>
  </g>
  <g id="text3216" transform="matrix(.18244 0 0 .18244 24.148 6.2699)" class="Dentition_text">
   <path id="path3338" d="m1394.2 113.67c-9.1147-3.3365-15.869-8.0972-20.264-14.282-4.3946-6.1848-6.5918-13.59-6.5918-22.217 0-13.021 4.6793-23.966 14.038-32.837 9.3587-8.8703 21.81-13.305 37.354-13.306 15.625 0.00018 28.198 4.5371 37.72 13.611 9.5214 9.074 14.282 20.121 14.282 33.142-0.0001 8.3009-2.177 15.523-6.5307 21.667-4.354 6.1443-10.966 10.885-19.836 14.221 10.986 3.5808 19.348 9.3588 25.085 17.334 5.7372 7.9753 8.6058 17.497 8.606 28.564-0.0002 15.3-5.4119 28.158-16.235 38.574-10.824 10.417-25.065 15.625-42.725 15.625-17.66-0.00001-31.901-5.2287-42.725-15.686s-16.235-23.498-16.235-39.124c0-11.637 2.9501-21.383 8.8501-29.236 5.9001-7.8531 14.303-13.204 25.208-16.052zm-4.3946-37.231c0 8.4637 2.7262 15.381 8.1787 20.752 5.4525 5.3712 12.532 8.0567 21.24 8.0566 8.4634 0.0001 15.401-2.6651 20.813-7.9956 5.4116-5.3303 8.1175-11.861 8.1176-19.592-0.0001-8.0565-2.7873-14.831-8.3618-20.325-5.5746-5.493-12.512-8.2396-20.813-8.2397-8.3822 0.000162-15.34 2.6857-20.874 8.0566-5.5339 5.3712-8.3008 11.8-8.3008 19.287zm-7.0801 82.642c0 6.2663 1.4852 12.329 4.4556 18.188 2.9703 5.8594 7.3852 10.396 13.245 13.611 5.8594 3.2145 12.166 4.8218 18.921 4.8218 10.498 0.00002 19.165-3.3773 26.001-10.132 6.8358-6.7545 10.254-15.34 10.254-25.757-0.0001-10.579-3.5198-19.328-10.559-26.245-7.0394-6.9172-15.849-10.376-26.428-10.376-10.335 0.00009-18.901 3.4181-25.696 10.254-6.7953 6.836-10.193 15.381-10.193 25.635z"/>
  </g>
  <g id="text3220" transform="matrix(.18244 0 0 .18244 -.17774 8.9006)">
   <path id="path3341" d="m1930.3 144.33 21.118-1.9531c1.7903 9.9284 5.2083 17.131 10.254 21.606 5.0455 4.4759 11.515 6.7139 19.409 6.7139 6.7545 0.00002 12.675-1.5462 17.761-4.6387 5.0862-3.0924 9.2569-7.2225 12.512-12.39 3.2551-5.1676 5.9814-12.146 8.1787-20.935 2.1972-8.789 3.2958-17.741 3.2959-26.855-0.0001-0.97648-0.041-2.4413-0.1221-4.3945-4.3946 6.9988-10.396 12.675-18.005 17.029-7.6092 4.3539-15.849 6.5308-24.719 6.5308-14.811 0.00006-27.344-5.371-37.598-16.113s-15.381-24.902-15.381-42.48c0-18.148 5.3508-32.755 16.052-43.823s24.109-16.601 40.222-16.602c11.637 0.0001797 22.278 3.1333 31.921 9.3994 9.6435 6.2664 16.968 15.198 21.973 26.794 5.0047 11.597 7.5072 28.381 7.5073 50.354-0.0001 22.868-2.4822 41.077-7.4463 54.626-4.9643 13.55-12.35 23.865-22.156 30.945-9.8064 7.0801-21.301 10.62-34.485 10.62-13.998-0.00001-25.431-3.8859-34.302-11.658-8.8704-7.7718-14.201-18.697-15.991-32.776zm89.966-78.979c-0.0001-12.614-3.357-22.624-10.071-30.029-6.7139-7.4054-14.791-11.108-24.231-11.108-9.7657 0.000162-18.27 3.9878-25.513 11.963-7.2429 7.9754-10.864 18.311-10.864 31.006 0 11.393 3.4383 20.65 10.315 27.771 6.8766 7.1208 15.36 10.681 25.452 10.681 10.172 0.00008 18.534-3.5603 25.086-10.681 6.551-7.1207 9.8265-16.988 9.8266-29.602z"/>
  </g>
  <g id="text3224" transform="matrix(.18244 0 0 .18244 -12.38 .59837)">
   <path id="path3344" d="m2459.8 310.71h-21.973v-140.01c-5.2897 5.0457-12.227 10.091-20.813 15.137-8.5857 5.0457-16.296 8.8299-23.132 11.353v-21.24c12.288-5.7778 23.031-12.777 32.227-20.996 9.1959-8.2192 15.706-16.194 19.531-23.926h14.16z"/>
   <path id="path3346" d="m2516.2 222.46c0-21.159 2.1769-38.188 6.5307-51.086 4.3539-12.899 10.824-22.847 19.409-29.846 8.5856-6.9985 19.389-10.498 32.41-10.498 9.6028 0.00018 18.026 1.933 25.268 5.7983 7.2428 3.8657 13.224 9.4403 17.944 16.724 4.7199 7.2837 8.4227 16.154 11.108 26.611 2.6854 10.457 4.0282 24.557 4.0283 42.297-0.0001 20.996-2.1567 37.944-6.4697 50.842-4.3133 12.899-10.763 22.868-19.348 29.907-8.5857 7.0394-19.43 10.559-32.532 10.559-17.253-0.00001-30.802-6.1849-40.649-18.555-11.8-14.893-17.7-39.144-17.7-72.754zm22.583 0c0 29.378 3.4383 48.93 10.315 58.655 6.8766 9.725 15.36 14.587 25.452 14.587 10.091 0.00002 18.575-4.8828 25.452-14.648 6.8765-9.7656 10.315-29.297 10.315-58.594-0.0001-29.46-3.4384-49.031-10.315-58.716-6.8768-9.6841-15.442-14.526-25.696-14.526-10.091 0.00016-18.148 4.2726-24.17 12.817-7.5684 10.905-11.352 31.047-11.352 60.425z"/>
  </g>
  <g id="text3228" transform="matrix(.18244 0 0 .18244 -18.132 7.4997)">
   <path id="path3349" d="m2843.1 510.71h-21.973v-140.01c-5.2898 5.0457-12.227 10.091-20.813 15.137-8.5856 5.0457-16.296 8.8299-23.132 11.353v-21.24c12.288-5.7778 23.03-12.777 32.226-20.996 9.1959-8.2192 15.706-16.194 19.531-23.926h14.16z"/>
   <path id="path3351" d="m2982.3 510.71h-21.973v-140.01c-5.2897 5.0457-12.227 10.091-20.813 15.137-8.5857 5.0457-16.296 8.8299-23.132 11.353v-21.24c12.288-5.7778 23.031-12.777 32.227-20.996 9.1959-8.2192 15.706-16.194 19.531-23.926h14.16z"/>
  </g>
  <g id="text3232" transform="matrix(.18244 0 0 .18244 -21.582 8.6499)">
   <path id="path3354" d="m3118.1 860.71h-21.973v-140.01c-5.2898 5.0457-12.227 10.091-20.813 15.137-8.5856 5.0457-16.296 8.8299-23.132 11.353v-21.24c12.288-5.7778 23.03-12.777 32.226-20.996 9.1959-8.2192 15.706-16.194 19.531-23.926h14.16z"/>
   <path id="path3356" d="m3290 839.6v21.118h-118.29c-0.1628-5.2897 0.6917-10.376 2.5635-15.259 3.011-8.0566 7.8328-15.991 14.465-23.804 6.6325-7.8124 16.215-16.846 28.748-27.1 19.45-15.95 32.593-28.585 39.429-37.903 6.8358-9.3179 10.254-18.127 10.254-26.428-0.0001-8.7075-3.1129-16.052-9.3384-22.034-6.2257-5.9813-14.343-8.972-24.353-8.9722-10.58 0.00016-19.043 3.174-25.391 9.5215-6.3477 6.3478-9.5622 15.137-9.6436 26.367l-22.583-2.3193c1.5462-16.846 7.3649-29.683 17.456-38.513 10.091-8.8296 23.641-13.244 40.649-13.245 17.171 0.00018 30.762 4.7609 40.772 14.282 10.01 9.5216 15.014 21.322 15.015 35.4-0.0001 7.1616-1.465 14.201-4.3945 21.118-2.9298 6.9174-7.7923 14.201-14.587 21.851-6.7954 7.6498-18.087 18.148-33.874 31.494-13.184 11.068-21.647 18.575-25.391 22.522-3.7435 3.947-6.8359 7.9142-9.2773 11.902z"/>
  </g>
  <g id="text3236" transform="matrix(.18244 0 0 .18244 -8.9297 -6.303)">
   <path id="path3359" d="m3193.1 1285.7h-21.973v-140.01c-5.2898 5.0457-12.227 10.091-20.813 15.137-8.5856 5.0457-16.296 8.8299-23.132 11.353v-21.24c12.288-5.7779 23.03-12.777 32.226-20.996 9.1959-8.2193 15.706-16.194 19.531-23.926h14.16z"/>
   <path id="path3361" d="m3249.7 1238.5 21.973-2.9297c2.5227 12.451 6.8155 21.423 12.878 26.916 6.0628 5.4932 13.448 8.2397 22.156 8.2397 10.335 0 19.063-3.5807 26.184-10.742 7.1207-7.1614 10.681-16.032 10.681-26.611-0.0001-10.091-3.296-18.412-9.8877-24.963-6.5919-6.551-14.974-9.8265-25.146-9.8266-4.1505 0.0001-9.3181 0.8139-15.503 2.4414l2.4414-19.287c1.4648 0.1628 2.6448 0.2442 3.54 0.2441 9.3587 0.0001 17.782-2.4413 25.269-7.3242 7.4869-4.8827 11.23-12.41 11.23-22.583-0.0001-8.0565-2.7263-14.73-8.1787-20.02-5.4525-5.2896-12.492-7.9345-21.118-7.9346-8.545 0.0001-15.666 2.6857-21.362 8.0566-5.6967 5.3713-9.3588 13.428-10.986 24.17l-21.973-3.9062c2.6855-14.73 8.789-26.143 18.31-34.241 9.5215-8.0972 21.362-12.146 35.522-12.146 9.7655 0.0002 18.758 2.0957 26.978 6.2866 8.2193 4.1912 14.506 9.9082 18.86 17.151 4.3537 7.243 6.5306 14.933 6.5307 23.071-0.0001 7.7312-2.0753 14.771-6.2255 21.118-4.1505 6.3478-10.295 11.393-18.433 15.137 10.579 2.4415 18.799 7.5074 24.658 15.198 5.8593 7.6905 8.789 17.314 8.7891 28.87-0.0001 15.625-5.6967 28.87-17.09 39.734s-25.798 16.296-43.213 16.296c-15.706 0-28.748-4.6794-39.124-14.038-10.376-9.3587-16.296-21.484-17.761-36.377z"/>
  </g>
  <g id="text3240" transform="matrix(.18244 0 0 .18244 -15.831 12.101)">
   <path id="path3364" d="m3326.5 1585.7h-21.973v-140.01c-5.2897 5.0457-12.227 10.091-20.813 15.137-8.5857 5.0457-16.296 8.8299-23.132 11.353v-21.24c12.288-5.7779 23.031-12.777 32.227-20.996 9.1959-8.2193 15.706-16.194 19.531-23.926h14.16z"/>
   <path id="path3366" d="m3453.3 1585.7v-42.847h-77.637v-20.142l81.665-115.97h17.944v115.97h24.17v20.142h-24.17v42.847zm0-62.988v-80.688l-56.03 80.688z"/>
  </g>
  <g id="text3244" transform="matrix(.18244 0 0 .18244 -26.183 .59837)">
   <path id="path3369" d="m3459.8 2077.4h-21.973v-140.01c-5.2897 5.0457-12.227 10.091-20.813 15.137-8.5857 5.0456-16.296 8.8298-23.132 11.352v-21.24c12.288-5.7779 23.031-12.777 32.227-20.996 9.1959-8.2193 15.706-16.194 19.531-23.926h14.16z"/>
   <path id="path3371" d="m3516.2 2030.5 23.071-1.9531c1.7089 11.23 5.6762 19.674 11.902 25.33 6.2256 5.656 13.733 8.4839 22.522 8.4839 10.579 0 19.531-3.9876 26.856-11.963 7.3241-7.9752 10.986-18.555 10.986-31.738-0.0001-12.532-3.5198-22.42-10.559-29.663-7.0395-7.2428-16.256-10.864-27.649-10.864-7.0802 0.0001-13.468 1.6074-19.165 4.8218-5.6966 3.2146-10.172 7.3853-13.428 12.512l-20.63-2.6855 17.334-91.919h88.989v20.996h-71.411l-9.6435 48.096c10.742-7.4869 22.013-11.23 33.814-11.23 15.625 0.0002 28.808 5.4119 39.551 16.235 10.742 10.824 16.113 24.74 16.113 41.748-0.0001 16.195-4.7202 30.192-14.16 41.992-11.475 14.486-27.14 21.728-46.997 21.728-16.276 0-29.561-4.5572-39.856-13.672-10.295-9.1146-16.174-21.2-17.639-36.255z"/>
  </g>
  <g id="text3248" transform="matrix(.18244 0 0 .18244 -28.483 12.101)">
   <path id="path3374" d="m3493.1 2452.4h-21.973v-140.01c-5.2898 5.0457-12.227 10.091-20.813 15.137-8.5856 5.0456-16.296 8.8298-23.132 11.352v-21.24c12.288-5.7779 23.03-12.777 32.226-20.996 9.1959-8.2193 15.706-16.194 19.531-23.926h14.16z"/>
   <path id="path3376" d="m3663.5 2317.2-21.851 1.709c-1.9532-8.6261-4.7201-14.892-8.3008-18.799-5.9408-6.2661-13.265-9.3992-21.973-9.3994-6.9988 0.0002-13.143 1.9533-18.433 5.8594-6.9174 5.0457-12.37 12.411-16.358 22.095-3.9876 9.6844-6.0628 23.478-6.2255 41.382 5.2896-8.0565 11.759-14.038 19.409-17.944 7.6497-3.9061 15.666-5.8593 24.048-5.8594 14.648 0.0001 27.12 5.3916 37.414 16.174 10.294 10.783 15.442 24.719 15.442 41.809-0.0001 11.23-2.4212 21.668-7.2632 31.311-4.8422 9.6436-11.495 17.029-19.958 22.156-8.4637 5.127-18.066 7.6904-28.809 7.6904-18.311 0-33.244-6.7342-44.8-20.203-11.556-13.468-17.334-35.665-17.334-66.589 0-34.586 6.3883-59.733 19.165-75.439 11.149-13.672 26.164-20.508 45.044-20.508 14.079 0.0002 25.614 3.9471 34.607 11.841 8.9924 7.894 14.384 18.799 16.174 32.715zm-89.722 77.148c0 7.5684 1.6072 14.811 4.8218 21.728 3.2145 6.9173 7.7107 12.187 13.489 15.808 5.7779 3.6214 11.841 5.4321 18.188 5.4321 9.2773 0 17.253-3.7434 23.926-11.23 6.6731-7.487 10.01-17.66 10.01-30.518-0.0001-12.37-3.296-22.115-9.8877-29.236-6.5919-7.1206-14.893-10.681-24.902-10.681-9.9285 0.0001-18.351 3.5605-25.269 10.681-6.9174 7.1209-10.376 16.459-10.376 28.015z"/>
  </g>
  <g id="text3252" transform="matrix(.18244 0 0 .18244 -13.531 .59837)">
   <path id="path3379" d="m3393.1 3035.7h-21.973v-140.01c-5.2898 5.0457-12.227 10.091-20.813 15.137-8.5856 5.0457-16.296 8.8299-23.132 11.353v-21.24c12.288-5.7779 23.03-12.777 32.226-20.996 9.1959-8.2193 15.706-16.194 19.531-23.926h14.16z"/>
   <path id="path3381" d="m3451 2880.2v-21.118h115.84v17.09c-11.393 12.126-22.685 28.239-33.874 48.34-11.19 20.101-19.836 40.772-25.94 62.012-4.3946 14.974-7.2023 31.372-8.4229 49.194h-22.583c0.2441-14.079 3.011-31.087 8.3008-51.025 5.2896-19.938 12.878-39.164 22.766-57.678 9.8876-18.514 20.406-34.118 31.555-46.814z"/>
  </g>
  <g id="text3256" transform="matrix(.18244 0 0 .18244 -23.883 -1.7021)">
   <path id="path3384" d="m3443.1 3510.7h-21.973v-140.01c-5.2898 5.0457-12.227 10.091-20.813 15.137-8.5856 5.0457-16.296 8.8299-23.132 11.353v-21.24c12.288-5.7779 23.03-12.777 32.226-20.996 9.1959-8.2193 15.706-16.194 19.531-23.926h14.16z"/>
   <path id="path3386" d="m3533.3 3413.7c-9.1146-3.3365-15.869-8.0972-20.264-14.282-4.3945-6.1848-6.5918-13.59-6.5918-22.217 0-13.021 4.6794-23.966 14.038-32.837 9.3587-8.8702 21.81-13.305 37.354-13.306 15.625 0.0002 28.198 4.5371 37.72 13.611 9.5213 9.0741 14.282 20.121 14.282 33.142-0.0001 8.3009-2.177 15.523-6.5308 21.668-4.3539 6.1443-10.966 10.885-19.836 14.221 10.986 3.5808 19.348 9.3588 25.086 17.334 5.7371 7.9753 8.6058 17.497 8.6059 28.564-0.0001 15.3-5.4119 28.158-16.235 38.574-10.824 10.417-25.065 15.625-42.725 15.625s-31.901-5.2286-42.725-15.686-16.235-23.498-16.235-39.124c0-11.637 2.95-21.383 8.8501-29.236 5.9-7.8531 14.302-13.204 25.208-16.052zm-4.3945-37.232c-0.0001 8.4637 2.7262 15.381 8.1787 20.752 5.4524 5.3712 12.532 8.0567 21.24 8.0566 8.4635 0.0001 15.401-2.6651 20.813-7.9956 5.4117-5.3303 8.1176-11.861 8.1177-19.592-0.0001-8.0565-2.7874-14.831-8.3618-20.325-5.5747-5.493-12.512-8.2396-20.813-8.2397-8.3822 0.0001-15.34 2.6857-20.874 8.0566-5.5339 5.3713-8.3009 11.8-8.3008 19.287zm-7.0801 82.642c0 6.2664 1.4852 12.329 4.4556 18.188 2.9703 5.8594 7.3852 10.396 13.245 13.611 5.8593 3.2145 12.166 4.8217 18.921 4.8217 10.498 0 19.165-3.3772 26.001-10.132 6.8358-6.7545 10.254-15.34 10.254-25.757-0.0001-10.579-3.5198-19.328-10.559-26.245-7.0395-6.9172-15.849-10.376-26.428-10.376-10.335 0.0001-18.901 3.418-25.696 10.254-6.7953 6.836-10.193 15.381-10.193 25.635z"/>
  </g>
  <g id="text3260" transform="matrix(.18244 0 0 .18244 -25.033 -12.054)">
   <path id="path3389" d="m3384.8 4077.4h-21.973v-140.01c-5.2897 5.0457-12.227 10.091-20.813 15.137-8.5857 5.0456-16.296 8.8298-23.132 11.352v-21.24c12.288-5.7779 23.031-12.777 32.227-20.996 9.1959-8.2193 15.706-16.194 19.531-23.926h14.16z"/>
   <path id="path3391" d="m3444.5 4036 21.118-1.9531c1.7904 9.9284 5.2083 17.131 10.254 21.606 5.0456 4.4759 11.515 6.7138 19.409 6.7138 6.7545 0 12.675-1.5462 17.761-4.6386 5.0861-3.0925 9.2569-7.2225 12.512-12.39 3.2551-5.1676 5.9813-12.146 8.1787-20.935 2.1971-8.789 3.2958-17.741 3.2959-26.856-0.0001-0.9765-0.041-2.4413-0.1221-4.3945-4.3946 6.9987-10.396 12.675-18.005 17.029-7.6091 4.3539-15.849 6.5308-24.719 6.5307-14.811 0.0001-27.344-5.371-37.598-16.113s-15.381-24.902-15.381-42.48c0-18.148 5.3507-32.755 16.052-43.823 10.702-11.068 24.109-16.601 40.222-16.602 11.637 0.0002 22.278 3.1333 31.921 9.3994 9.6434 6.2664 16.968 15.198 21.973 26.794 5.0048 11.597 7.5072 28.382 7.5074 50.354-0.0002 22.868-2.4823 41.077-7.4463 54.626-4.9643 13.55-12.35 23.865-22.156 30.945-9.8064 7.0801-21.301 10.62-34.485 10.62-13.997 0-25.431-3.8859-34.302-11.658-8.8705-7.7718-14.201-18.697-15.991-32.776zm89.966-78.979c-0.0001-12.614-3.357-22.624-10.071-30.029-6.714-7.4055-14.791-11.108-24.231-11.108-9.7656 0.0001-18.27 3.9877-25.513 11.963-7.2428 7.9754-10.864 18.311-10.864 31.006 0 11.393 3.4383 20.65 10.315 27.771 6.8766 7.1209 15.36 10.681 25.452 10.681 10.172 0 18.534-3.5603 25.085-10.681s9.8266-16.988 9.8267-29.602z"/>
  </g>
  <g id="text3264" transform="matrix(.18244 0 0 .18244 -22.732 9.8001)">
   <path id="path3394" d="m3275.9 4314.6v21.118h-118.29c-0.1628-5.2897 0.6917-10.376 2.5634-15.259 3.0111-8.0566 7.8329-15.991 14.465-23.804 6.6324-7.8125 16.215-16.846 28.748-27.1 19.45-15.95 32.593-28.585 39.429-37.903 6.8359-9.3179 10.254-18.127 10.254-26.428-0.0001-8.7075-3.1128-16.052-9.3383-22.034-6.2257-5.9813-14.343-8.972-24.353-8.9721-10.579 0.0001-19.043 3.1739-25.391 9.5214-6.3477 6.3478-9.5622 15.137-9.6435 26.367l-22.583-2.3193c1.5462-16.846 7.3648-29.683 17.456-38.513 10.091-8.8296 23.641-13.244 40.649-13.245 17.171 0.0002 30.762 4.7609 40.772 14.282 10.01 9.5216 15.014 21.322 15.015 35.4-0.0002 7.1616-1.465 14.201-4.3946 21.118-2.9298 6.9174-7.7922 14.201-14.587 21.85-6.7953 7.6499-18.087 18.148-33.874 31.494-13.184 11.068-21.647 18.575-25.391 22.522-3.7436 3.9469-6.836 7.9142-9.2774 11.902z"/>
   <path id="path3396" d="m3299.5 4247.5c0-21.159 2.1769-38.188 6.5308-51.086 4.3538-12.899 10.824-22.847 19.409-29.846 8.5855-6.9985 19.389-10.498 32.41-10.498 9.6028 0.0002 18.026 1.9329 25.269 5.7983 7.2427 3.8657 13.224 9.4403 17.944 16.724 4.72 7.2836 8.4228 16.154 11.108 26.611 2.6855 10.458 4.0282 24.557 4.0284 42.297-0.0002 20.996-2.1567 37.944-6.4698 50.842-4.3132 12.899-10.763 22.868-19.348 29.907-8.5857 7.0393-19.43 10.559-32.532 10.559-17.253 0-30.802-6.1849-40.649-18.555-11.8-14.892-17.7-39.144-17.7-72.754zm22.583 0c0 29.378 3.4383 48.93 10.315 58.655 6.8766 9.725 15.36 14.587 25.452 14.587 10.091 0 18.575-4.8828 25.452-14.648 6.8765-9.7656 10.315-29.297 10.315-58.594-0.0001-29.46-3.4384-49.031-10.315-58.716-6.8767-9.6841-15.442-14.526-25.696-14.526-10.091 0.0001-18.148 4.2726-24.17 12.817-7.5684 10.905-11.353 31.047-11.353 60.425z"/>
  </g>
  <g id="text3268" transform="matrix(.18244 0 0 .18244 -19.282 -1.7021)">
   <path id="path3399" d="m3034.2 4731.3v21.118h-118.29c-0.1628-5.2897 0.6917-10.376 2.5635-15.259 3.011-8.0566 7.8328-15.991 14.465-23.804 6.6325-7.8125 16.215-16.846 28.748-27.1 19.45-15.95 32.593-28.585 39.429-37.903 6.8358-9.3179 10.254-18.127 10.254-26.428-0.0001-8.7075-3.1129-16.052-9.3384-22.034-6.2257-5.9813-14.343-8.972-24.353-8.9721-10.58 0.0001-19.043 3.1739-25.391 9.5214-6.3477 6.3478-9.5622 15.137-9.6436 26.367l-22.583-2.3193c1.5462-16.846 7.3649-29.683 17.456-38.513 10.091-8.8296 23.641-13.244 40.649-13.245 17.171 0.0002 30.762 4.7609 40.772 14.282 10.01 9.5216 15.014 21.322 15.015 35.4-0.0001 7.1616-1.465 14.201-4.3945 21.118-2.9298 6.9174-7.7923 14.201-14.587 21.85-6.7954 7.6499-18.087 18.148-33.874 31.494-13.184 11.068-21.647 18.575-25.391 22.522-3.7435 3.9469-6.8359 7.9142-9.2773 11.902z"/>
   <path id="path3401" d="m3140.6 4752.4h-21.973v-140.01c-5.2898 5.0457-12.227 10.091-20.813 15.137-8.5856 5.0456-16.296 8.8298-23.132 11.352v-21.24c12.288-5.7779 23.03-12.777 32.227-20.996 9.1958-8.2193 15.706-16.194 19.531-23.926h14.16z"/>
  </g>
  <g id="text3272" transform="matrix(.18244 0 0 .18244 -12.38 -20.106)">
   <path id="path3404" d="m2709.2 5072.9v21.118h-118.29c-0.1628-5.2897 0.6917-10.376 2.5635-15.259 3.011-8.0566 7.8328-15.991 14.465-23.804 6.6325-7.8125 16.215-16.846 28.748-27.1 19.45-15.95 32.593-28.585 39.429-37.903 6.8358-9.3179 10.254-18.127 10.254-26.428-0.0001-8.7075-3.1129-16.052-9.3384-22.034-6.2257-5.9813-14.343-8.972-24.353-8.9721-10.58 0.0001-19.043 3.1739-25.391 9.5214-6.3477 6.3478-9.5622 15.137-9.6436 26.367l-22.583-2.3193c1.5462-16.846 7.3649-29.683 17.456-38.513 10.091-8.8296 23.641-13.244 40.649-13.245 17.171 0.0002 30.762 4.7609 40.772 14.282 10.01 9.5216 15.014 21.322 15.015 35.4-0.0001 7.1616-1.465 14.201-4.3945 21.118-2.9298 6.9174-7.7923 14.201-14.587 21.85-6.7954 7.6499-18.087 18.148-33.874 31.494-13.184 11.068-21.647 18.575-25.391 22.522-3.7435 3.9469-6.8359 7.9142-9.2773 11.902z"/>
   <path id="path3406" d="m2848.3 5072.9v21.118h-118.29c-0.1628-5.2897 0.6917-10.376 2.5634-15.259 3.0111-8.0566 7.8329-15.991 14.465-23.804 6.6324-7.8125 16.215-16.846 28.748-27.1 19.45-15.95 32.593-28.585 39.429-37.903 6.8359-9.3179 10.254-18.127 10.254-26.428-0.0002-8.7075-3.1129-16.052-9.3384-22.034-6.2257-5.9813-14.343-8.972-24.353-8.9721-10.579 0.0001-19.043 3.1739-25.391 9.5214-6.3477 6.3478-9.5622 15.137-9.6435 26.367l-22.583-2.3193c1.5462-16.846 7.3648-29.683 17.456-38.513 10.091-8.8296 23.641-13.244 40.649-13.245 17.171 0.0002 30.762 4.7609 40.772 14.282 10.01 9.5216 15.014 21.322 15.015 35.4-0.0002 7.1616-1.465 14.201-4.3946 21.118-2.9298 6.9174-7.7922 14.201-14.587 21.85-6.7953 7.6499-18.087 18.148-33.874 31.494-13.184 11.068-21.647 18.575-25.391 22.522-3.7435 3.9469-6.836 7.9142-9.2774 11.902z"/>
  </g>
  <g id="text3276" transform="matrix(.18244 0 0 .18244 -6.6293 -5.1527)">
   <path id="path3409" d="m2292.5 5114.6v21.118h-118.29c-0.1628-5.2897 0.6917-10.376 2.5635-15.259 3.011-8.0566 7.8328-15.991 14.465-23.804 6.6325-7.8125 16.215-16.846 28.748-27.1 19.45-15.95 32.593-28.585 39.429-37.903 6.8358-9.3179 10.254-18.127 10.254-26.428-0.0001-8.7075-3.1129-16.052-9.3384-22.034-6.2257-5.9813-14.343-8.972-24.353-8.9721-10.58 0.0001-19.043 3.1739-25.391 9.5214-6.3477 6.3478-9.5622 15.137-9.6436 26.367l-22.583-2.3193c1.5462-16.846 7.3649-29.683 17.456-38.513 10.091-8.8296 23.641-13.244 40.649-13.245 17.171 0.0002 30.762 4.7609 40.772 14.282 10.01 9.5216 15.014 21.322 15.015 35.4-0.0001 7.1616-1.465 14.201-4.3945 21.118-2.9298 6.9174-7.7923 14.201-14.587 21.85-6.7954 7.6499-18.087 18.148-33.874 31.494-13.184 11.068-21.647 18.575-25.391 22.522-3.7435 3.9469-6.8359 7.9142-9.2773 11.902z"/>
   <path id="path3411" d="m2316.3 5088.5 21.973-2.9297c2.5228 12.451 6.8156 21.423 12.878 26.916 6.0628 5.4932 13.448 8.2397 22.156 8.2397 10.335 0 19.063-3.5807 26.184-10.742 7.1206-7.1614 10.681-16.032 10.681-26.611-0.0001-10.091-3.296-18.412-9.8877-24.963-6.5919-6.551-14.974-9.8265-25.146-9.8266-4.1504 0.0001-9.3181 0.8139-15.503 2.4414l2.4414-19.287c1.4648 0.1628 2.6448 0.2442 3.5401 0.2441 9.3586 0.0001 17.782-2.4413 25.268-7.3242 7.4869-4.8827 11.23-12.41 11.23-22.583-0.0001-8.0565-2.7263-14.73-8.1787-20.02-5.4526-5.2896-12.492-7.9345-21.118-7.9346-8.545 0.0001-15.666 2.6857-21.362 8.0566-5.6967 5.3713-9.3588 13.428-10.986 24.17l-21.973-3.9062c2.6855-14.73 8.7891-26.143 18.311-34.241 9.5214-8.0972 21.362-12.146 35.522-12.146 9.7656 0.0002 18.758 2.0957 26.978 6.2866 8.2193 4.1912 14.506 9.9082 18.86 17.151 4.3538 7.243 6.5307 14.933 6.5308 23.071-0.0001 7.7312-2.0753 14.771-6.2256 21.118-4.1505 6.3478-10.295 11.393-18.433 15.137 10.579 2.4415 18.799 7.5074 24.658 15.198 5.8592 7.6905 8.7889 17.314 8.7891 28.87-0.0002 15.625-5.6968 28.87-17.09 39.734s-25.798 16.296-43.213 16.296c-15.706 0-28.748-4.6794-39.124-14.038-10.376-9.3587-16.296-21.484-17.761-36.377z"/>
  </g>
  <g id="text3280" transform="matrix(.18244 0 0 .18244 -7.7795 9.8001)">
   <path id="path3414" d="m1984.2 5131.3v21.118h-118.29c-0.1628-5.2897 0.6917-10.376 2.5635-15.259 3.011-8.0566 7.8328-15.991 14.465-23.804 6.6325-7.8125 16.215-16.846 28.748-27.1 19.45-15.95 32.593-28.585 39.429-37.903 6.8358-9.3179 10.254-18.127 10.254-26.428-0.0001-8.7075-3.1129-16.052-9.3384-22.034-6.2257-5.9813-14.343-8.972-24.353-8.9721-10.58 0.0001-19.043 3.1739-25.391 9.5214-6.3477 6.3478-9.5622 15.137-9.6436 26.367l-22.583-2.3193c1.5462-16.846 7.3649-29.683 17.456-38.513 10.091-8.8296 23.641-13.244 40.649-13.245 17.171 0.0002 30.762 4.7609 40.772 14.282 10.01 9.5216 15.014 21.322 15.015 35.4-0.0001 7.1616-1.465 14.201-4.3945 21.118-2.9298 6.9174-7.7923 14.201-14.587 21.85-6.7954 7.6499-18.087 18.148-33.874 31.494-13.184 11.068-21.647 18.575-25.391 22.522-3.7435 3.9469-6.8359 7.9142-9.2773 11.902z"/>
   <path id="path3416" d="m2078.3 5152.4v-42.847h-77.637v-20.142l81.665-115.97h17.944v115.97h24.17v20.142h-24.17v42.847zm0-62.988v-80.688l-56.03 80.688z"/>
  </g>
  <g id="text3284" transform="matrix(.18244 0 0 .18244 -15.831 1.7486)">
   <path id="path3419" d="m1700.9 5189.6v21.118h-118.29c-0.1628-5.2897 0.6917-10.376 2.5634-15.259 3.0111-8.0566 7.8329-15.991 14.465-23.804 6.6324-7.8125 16.215-16.846 28.748-27.1 19.45-15.95 32.593-28.585 39.429-37.903 6.8359-9.3179 10.254-18.127 10.254-26.428-0.0001-8.7075-3.1128-16.052-9.3383-22.034-6.2257-5.9813-14.343-8.972-24.353-8.9721-10.579 0.0001-19.043 3.1739-25.391 9.5214-6.3477 6.3478-9.5622 15.137-9.6435 26.367l-22.583-2.3193c1.5462-16.846 7.3648-29.683 17.456-38.513 10.091-8.8296 23.641-13.244 40.649-13.245 17.171 0.0002 30.762 4.7609 40.772 14.282 10.01 9.5216 15.014 21.322 15.015 35.4-0.0002 7.1616-1.465 14.201-4.3946 21.118-2.9298 6.9174-7.7922 14.201-14.587 21.85-6.7953 7.6499-18.087 18.148-33.874 31.494-13.184 11.068-21.647 18.575-25.391 22.522-3.7436 3.9469-6.836 7.9142-9.2774 11.902z"/>
   <path id="path3421" d="m1724.5 5163.8 23.071-1.9531c1.709 11.23 5.6763 19.674 11.902 25.33 6.2255 5.656 13.733 8.4839 22.522 8.4839 10.579 0 19.531-3.9876 26.855-11.963 7.3241-7.9752 10.986-18.555 10.986-31.738-0.0001-12.532-3.5197-22.42-10.559-29.663-7.0395-7.2428-16.256-10.864-27.649-10.864-7.0801 0.0001-13.468 1.6074-19.165 4.8218-5.6967 3.2146-10.173 7.3853-13.428 12.512l-20.63-2.6855 17.334-91.919h88.989v20.996h-71.411l-9.6436 48.096c10.742-7.4869 22.013-11.23 33.814-11.23 15.625 0.0002 28.808 5.4119 39.551 16.235 10.742 10.824 16.113 24.74 16.113 41.748-0.0002 16.195-4.7202 30.192-14.16 41.992-11.475 14.486-27.14 21.728-46.997 21.728-16.276 0-29.561-4.5573-39.856-13.672-10.295-9.1146-16.174-21.2-17.639-36.255z"/>
  </g>
  <g id="text3288" transform="matrix(.18244 0 0 .18244 -20.432 5.1993)">
   <path id="path3424" d="m1384.2 5106.3v21.118h-118.29c-0.1628-5.2897 0.6917-10.376 2.5635-15.259 3.011-8.0566 7.8328-15.991 14.465-23.804 6.6325-7.8125 16.215-16.846 28.748-27.1 19.45-15.95 32.593-28.585 39.429-37.903 6.8358-9.3179 10.254-18.127 10.254-26.428-0.0001-8.7075-3.1129-16.052-9.3384-22.034-6.2257-5.9813-14.343-8.972-24.353-8.9721-10.58 0.0001-19.043 3.1739-25.391 9.5214-6.3477 6.3478-9.5622 15.137-9.6436 26.367l-22.583-2.3193c1.5462-16.846 7.3649-29.683 17.456-38.513 10.091-8.8296 23.641-13.244 40.649-13.245 17.171 0.0002 30.762 4.7609 40.772 14.282 10.01 9.5216 15.014 21.322 15.015 35.4-0.0001 7.1616-1.465 14.201-4.3945 21.118-2.9298 6.9174-7.7923 14.201-14.587 21.85-6.7954 7.6499-18.087 18.148-33.874 31.494-13.184 11.068-21.647 18.575-25.391 22.522-3.7435 3.9469-6.8359 7.9142-9.2773 11.902z"/>
   <path id="path3426" d="m1521.9 4992.2-21.851 1.709c-1.9533-8.6261-4.7202-14.892-8.3008-18.799-5.9409-6.2661-13.265-9.3992-21.973-9.3994-6.9987 0.0002-13.143 1.9533-18.433 5.8594-6.9173 5.0457-12.37 12.411-16.357 22.095-3.9877 9.6844-6.0629 23.478-6.2256 41.382 5.2897-8.0565 11.759-14.038 19.409-17.944 7.6497-3.9061 15.666-5.8593 24.048-5.8594 14.648 0.0001 27.12 5.3916 37.415 16.174 10.294 10.783 15.442 24.719 15.442 41.809-0.0001 11.23-2.4212 21.668-7.2632 31.311-4.8422 9.6436-11.495 17.029-19.958 22.156-8.4636 5.127-18.066 7.6904-28.809 7.6904-18.311 0-33.244-6.7342-44.8-20.203-11.556-13.468-17.334-35.665-17.334-66.589 0-34.586 6.3884-59.733 19.165-75.439 11.149-13.672 26.164-20.508 45.044-20.508 14.079 0.0002 25.614 3.9471 34.607 11.841 8.9924 7.894 14.384 18.799 16.174 32.715zm-89.722 77.148c-0.0001 7.5684 1.6072 14.811 4.8218 21.728 3.2144 6.9173 7.7107 12.187 13.489 15.808 5.778 3.6214 11.841 5.4321 18.188 5.4321 9.2773 0 17.252-3.7434 23.926-11.23 6.6731-7.487 10.01-17.66 10.01-30.518-0.0001-12.37-3.296-22.115-9.8876-29.236-6.5919-7.1206-14.893-10.681-24.902-10.681-9.9284 0.0001-18.351 3.5605-25.268 10.681-6.9174 7.1209-10.376 16.459-10.376 28.015z"/>
  </g>
  <g id="text3292" transform="matrix(.18244 0 0 .18244 -16.981 8.6499)">
   <path id="path3429" d="m1025.9 4947.9v21.118h-118.29c-0.16277-5.2897 0.69172-10.376 2.5635-15.259 3.011-8.0566 7.8328-15.991 14.465-23.804 6.6324-7.8125 16.215-16.846 28.748-27.1 19.45-15.95 32.593-28.585 39.429-37.903 6.8358-9.3179 10.254-18.127 10.254-26.428-0.0001-8.7075-3.1128-16.052-9.3383-22.034-6.2257-5.9813-14.343-8.972-24.353-8.9721-10.579 0.0001-19.043 3.1739-25.391 9.5214-6.3477 6.3478-9.5622 15.137-9.6436 26.367l-22.583-2.3193c1.5462-16.846 7.3649-29.683 17.456-38.513 10.091-8.8296 23.641-13.244 40.649-13.245 17.171 0.0002 30.762 4.7609 40.771 14.282 10.01 9.5216 15.014 21.322 15.015 35.4-0.0002 7.1616-1.465 14.201-4.3946 21.118-2.9298 6.9174-7.7922 14.201-14.587 21.85-6.7953 7.6499-18.087 18.148-33.874 31.494-13.184 11.068-21.647 18.575-25.391 22.522-3.7435 3.9469-6.836 7.9142-9.2773 11.902z"/>
   <path id="path3431" d="m1051 4813.5v-21.118h115.84v17.09c-11.393 12.126-22.685 28.239-33.874 48.34-11.19 20.101-19.836 40.772-25.94 62.012-4.3946 14.974-7.2023 31.372-8.4229 49.194h-22.583c0.2441-14.079 3.011-31.087 8.3008-51.025 5.2896-19.938 12.878-39.164 22.766-57.678 9.8876-18.514 20.406-34.118 31.555-46.814z"/>
  </g>
  <g id="text3296" transform="matrix(.18244 0 0 .18244 -15.831 13.251)">
   <path id="path3434" d="m759.19 4664.6v21.118h-118.29c-0.16277-5.2897 0.69173-10.376 2.5635-15.259 3.011-8.0566 7.8328-15.991 14.465-23.804 6.6325-7.8125 16.215-16.846 28.748-27.1 19.45-15.95 32.593-28.585 39.429-37.903 6.8358-9.3179 10.254-18.127 10.254-26.428-0.00011-8.7075-3.1129-16.052-9.3384-22.034-6.2257-5.9813-14.343-8.972-24.353-8.9721-10.579 0.0001-19.043 3.1739-25.391 9.5214-6.3477 6.3478-9.5622 15.137-9.6436 26.367l-22.583-2.3193c1.5462-16.846 7.3649-29.683 17.456-38.513 10.091-8.8296 23.641-13.244 40.649-13.245 17.171 0.0002 30.762 4.7609 40.771 14.282 10.01 9.5216 15.015 21.322 15.015 35.4-0.00012 7.1616-1.465 14.201-4.3945 21.118-2.9298 6.9174-7.7923 14.201-14.587 21.85-6.7954 7.6499-18.087 18.148-33.875 31.494-13.184 11.068-21.647 18.575-25.391 22.522-3.7435 3.9469-6.836 7.9142-9.2773 11.902z"/>
   <path id="path3436" d="m816.68 4588.7c-9.1146-3.3365-15.869-8.0972-20.264-14.282-4.3946-6.1848-6.5918-13.59-6.5918-22.217-0.00001-13.021 4.6793-23.966 14.038-32.837 9.3587-8.8702 21.81-13.305 37.354-13.306 15.625 0.0002 28.198 4.5371 37.72 13.611 9.5214 9.0741 14.282 20.121 14.282 33.142-0.00012 8.3009-2.177 15.523-6.5308 21.668-4.354 6.1443-10.966 10.885-19.836 14.221 10.986 3.5808 19.348 9.3588 25.085 17.334 5.7372 7.9753 8.6058 17.497 8.606 28.564-0.00013 15.3-5.4119 28.158-16.235 38.574-10.824 10.417-25.065 15.625-42.725 15.625s-31.901-5.2286-42.725-15.686-16.235-23.498-16.235-39.124c-0.00001-11.637 2.95-21.383 8.8501-29.236 5.9-7.8531 14.303-13.204 25.208-16.052zm-4.3945-37.232c-0.00004 8.4637 2.7262 15.381 8.1787 20.752 5.4524 5.3712 12.532 8.0567 21.24 8.0566 8.4635 0.0001 15.401-2.6651 20.813-7.9956 5.4117-5.3303 8.1176-11.861 8.1177-19.592-0.0001-8.0565-2.7874-14.831-8.3618-20.325-5.5746-5.493-12.512-8.2396-20.813-8.2397-8.3822 0.0001-15.34 2.6857-20.874 8.0566-5.5339 5.3713-8.3008 11.8-8.3008 19.287zm-7.0801 82.642c-0.00003 6.2664 1.4852 12.329 4.4556 18.188 2.9703 5.8594 7.3852 10.396 13.245 13.611 5.8593 3.2145 12.166 4.8217 18.921 4.8217 10.498 0 19.165-3.3772 26.001-10.132 6.8358-6.7545 10.254-15.34 10.254-25.757-0.00011-10.579-3.5198-19.328-10.559-26.245-7.0395-6.9172-15.849-10.376-26.428-10.376-10.335 0.0001-18.901 3.418-25.696 10.254-6.7953 6.836-10.193 15.381-10.193 25.635z"/>
  </g>
  <g id="text3300" transform="matrix(.18244 0 0 .18244 -10.08 10.95)">
   <path id="path3439" d="m517.52 4331.3v21.118h-118.29c-0.16277-5.2897 0.69172-10.376 2.5635-15.259 3.0111-8.0566 7.8328-15.991 14.465-23.804 6.6325-7.8125 16.215-16.846 28.748-27.1 19.45-15.95 32.593-28.585 39.429-37.903 6.8358-9.3179 10.254-18.127 10.254-26.428-0.0001-8.7075-3.1129-16.052-9.3384-22.034-6.2257-5.9813-14.343-8.972-24.353-8.9721-10.579 0.0001-19.043 3.1739-25.391 9.5214-6.3477 6.3478-9.5622 15.137-9.6436 26.367l-22.583-2.3193c1.5462-16.846 7.3649-29.683 17.456-38.513 10.091-8.8296 23.641-13.244 40.649-13.245 17.171 0.0002 30.762 4.7609 40.771 14.282 10.01 9.5216 15.015 21.322 15.015 35.4-0.00013 7.1616-1.465 14.201-4.3945 21.118-2.9298 6.9174-7.7923 14.201-14.587 21.85-6.7953 7.6499-18.087 18.148-33.875 31.494-13.184 11.068-21.647 18.575-25.391 22.522-3.7435 3.9469-6.836 7.9142-9.2774 11.902z"/>
   <path id="path3441" d="m544.5 4311 21.118-1.9531c1.7903 9.9284 5.2083 17.131 10.254 21.606 5.0455 4.4759 11.515 6.7138 19.409 6.7138 6.7545 0 12.675-1.5462 17.761-4.6386 5.0862-3.0925 9.2569-7.2225 12.512-12.39 3.2551-5.1676 5.9813-12.146 8.1787-20.935 2.1972-8.789 3.2958-17.741 3.2959-26.856-0.0001-0.9765-0.0408-2.4413-0.12207-4.3945-4.3946 6.9987-10.396 12.675-18.005 17.029-7.6091 4.3539-15.849 6.5308-24.719 6.5307-14.811 0.0001-27.344-5.371-37.598-16.113s-15.381-24.902-15.381-42.48c-0.00001-18.148 5.3507-32.755 16.052-43.823s24.109-16.601 40.222-16.602c11.637 0.0002 22.278 3.1333 31.921 9.3994 9.6434 6.2664 16.968 15.198 21.973 26.794 5.0048 11.597 7.5072 28.382 7.5073 50.354-0.00013 22.868-2.4822 41.077-7.4463 54.626-4.9643 13.55-12.35 23.865-22.156 30.945-9.8064 7.0801-21.301 10.62-34.485 10.62-13.997 0-25.431-3.8859-34.302-11.658-8.8705-7.7718-14.201-18.697-15.991-32.776zm89.966-78.979c-0.00011-12.614-3.357-22.624-10.071-30.029-6.714-7.4055-14.791-11.108-24.231-11.108-9.7657 0.0001-18.27 3.9877-25.513 11.963-7.2429 7.9755-10.864 18.311-10.864 31.006-0.00004 11.393 3.4383 20.65 10.315 27.771 6.8766 7.1209 15.36 10.681 25.452 10.681 10.172 0 18.534-3.5603 25.085-10.681s9.8266-16.988 9.8267-29.602z"/>
  </g>
  <g id="text3304" transform="matrix(.18244 0 0 .18244 -6.6293 28.204)">
   <path id="path3444" d="m168.83 3780.1 21.973-2.9297c2.5228 12.451 6.8156 21.423 12.878 26.916 6.0628 5.4932 13.448 8.2397 22.156 8.2397 10.335 0 19.063-3.5807 26.184-10.742 7.1207-7.1614 10.681-16.032 10.681-26.611-0.00011-10.091-3.296-18.412-9.8877-24.963-6.5919-6.551-14.974-9.8265-25.146-9.8266-4.1505 0.0001-9.3181 0.8139-15.503 2.4414l2.4414-19.287c1.4648 0.1628 2.6448 0.2442 3.54 0.2441 9.3587 0.0001 17.782-2.4413 25.269-7.3242 7.4869-4.8827 11.23-12.41 11.23-22.583-0.00009-8.0565-2.7263-14.73-8.1787-20.02-5.4526-5.2896-12.492-7.9344-21.118-7.9346-8.545 0.0002-15.666 2.6857-21.362 8.0566-5.6967 5.3713-9.3588 13.428-10.986 24.17l-21.973-3.9063c2.6855-14.73 8.789-26.143 18.311-34.241 9.5214-8.0972 21.362-12.146 35.522-12.146 9.7656 0.0002 18.758 2.0957 26.978 6.2866 8.2193 4.1913 14.506 9.9082 18.86 17.151 4.3537 7.243 6.5306 14.933 6.5308 23.071-0.00012 7.7312-2.0753 14.771-6.2256 21.118-4.1505 6.3478-10.295 11.393-18.433 15.137 10.579 2.4415 18.799 7.5074 24.658 15.198 5.8592 7.6905 8.7889 17.314 8.7891 28.87-0.00013 15.625-5.6967 28.87-17.09 39.734s-25.798 16.296-43.213 16.296c-15.706 0-28.748-4.6793-39.124-14.038s-16.296-21.484-17.761-36.377z"/>
   <path id="path3446" d="m307.87 3739.1c-0.00001-21.159 2.1769-38.188 6.5308-51.086 4.3538-12.899 10.824-22.847 19.409-29.846 8.5856-6.9985 19.389-10.498 32.41-10.498 9.6028 0.0002 18.026 1.9329 25.269 5.7983 7.2427 3.8658 13.224 9.4403 17.944 16.724 4.7199 7.2836 8.4227 16.154 11.108 26.611 2.6854 10.458 4.0282 24.557 4.0283 42.297-0.00013 20.996-2.1567 37.944-6.4697 50.842-4.3133 12.899-10.763 22.868-19.348 29.907-8.5857 7.0393-19.43 10.559-32.532 10.559-17.253 0-30.802-6.1849-40.649-18.555-11.8-14.893-17.7-39.144-17.7-72.754zm22.583 0c-0.00003 29.378 3.4383 48.93 10.315 58.655 6.8766 9.725 15.36 14.587 25.452 14.587 10.091 0 18.575-4.8828 25.452-14.648 6.8765-9.7656 10.315-29.297 10.315-58.594-0.0001-29.46-3.4384-49.031-10.315-58.716-6.8767-9.6841-15.442-14.526-25.696-14.526-10.091 0.0001-18.148 4.2726-24.17 12.817-7.5684 10.905-11.353 31.047-11.353 60.425z"/>
  </g>
  <g id="text3308" transform="matrix(.18244 0 0 .18244 -11.23 19.002)">
   <path id="path3449" d="m118.83 3296.8 21.973-2.9297c2.5228 12.451 6.8156 21.423 12.878 26.916 6.0628 5.4932 13.448 8.2398 22.156 8.2398 10.335 0 19.063-3.5807 26.184-10.742 7.1207-7.1614 10.681-16.032 10.681-26.611-0.00011-10.091-3.296-18.412-9.8877-24.963-6.5919-6.551-14.974-9.8266-25.146-9.8267-4.1505 0.0001-9.3181 0.8139-15.503 2.4414l2.4414-19.287c1.4648 0.1629 2.6448 0.2443 3.54 0.2442 9.3587 0.0001 17.782-2.4413 25.269-7.3243 7.4869-4.8827 11.23-12.41 11.23-22.583-0.00009-8.0565-2.7263-14.73-8.1787-20.02-5.4526-5.2895-12.492-7.9344-21.118-7.9346-8.545 0.0002-15.666 2.6857-21.362 8.0567-5.6967 5.3712-9.3588 13.428-10.986 24.17l-21.973-3.9063c2.6855-14.73 8.789-26.143 18.311-34.241 9.5214-8.0971 21.362-12.146 35.522-12.146 9.7656 0.0002 18.758 2.0957 26.978 6.2867 8.2193 4.1912 14.506 9.9082 18.86 17.151 4.3537 7.243 6.5306 14.933 6.5308 23.071-0.00012 7.7313-2.0753 14.771-6.2256 21.118-4.1505 6.3477-10.295 11.393-18.433 15.137 10.579 2.4415 18.799 7.5074 24.658 15.198 5.8592 7.6905 8.7889 17.314 8.7891 28.87-0.00013 15.625-5.6967 28.87-17.09 39.734s-25.798 16.296-43.213 16.296c-15.706 0-28.748-4.6794-39.124-14.038-10.376-9.3587-16.296-21.484-17.761-36.377z"/>
   <path id="path3451" d="m340.63 3344h-21.973v-140.01c-5.2898 5.0457-12.227 10.091-20.813 15.137-8.5857 5.0457-16.296 8.8299-23.132 11.352v-21.24c12.288-5.7778 23.031-12.776 32.227-20.996 9.1959-8.2192 15.706-16.194 19.531-23.926h14.16z"/>
  </g>
  <g id="text3312" transform="matrix(.18244 0 0 .18244 -19.282 .59837)">
   <path id="path3454" d="m160.5 2971.8 21.973-2.9297c2.5228 12.451 6.8156 21.423 12.878 26.916 6.0628 5.4932 13.448 8.2398 22.156 8.2398 10.335 0 19.063-3.5807 26.184-10.742 7.1207-7.1614 10.681-16.032 10.681-26.611-0.00011-10.091-3.296-18.412-9.8877-24.963-6.5919-6.551-14.974-9.8266-25.146-9.8267-4.1505 0.0001-9.3181 0.8139-15.503 2.4414l2.4414-19.287c1.4648 0.1629 2.6448 0.2443 3.54 0.2442 9.3587 0.0001 17.782-2.4413 25.269-7.3243 7.4869-4.8827 11.23-12.41 11.23-22.583-0.0001-8.0565-2.7263-14.73-8.1787-20.02-5.4526-5.2895-12.492-7.9344-21.118-7.9346-8.545 0.0002-15.666 2.6857-21.362 8.0567-5.6967 5.3712-9.3588 13.428-10.986 24.17l-21.973-3.9063c2.6855-14.73 8.789-26.143 18.311-34.241 9.5214-8.0971 21.362-12.146 35.522-12.146 9.7656 0.0002 18.758 2.0957 26.978 6.2867 8.2193 4.1912 14.506 9.9082 18.86 17.151 4.3537 7.243 6.5306 14.933 6.5308 23.071-0.00011 7.7313-2.0753 14.771-6.2256 21.118-4.1505 6.3477-10.295 11.393-18.433 15.137 10.579 2.4415 18.799 7.5074 24.658 15.198 5.8592 7.6905 8.7889 17.314 8.7891 28.87-0.00013 15.625-5.6967 28.87-17.09 39.734s-25.798 16.296-43.213 16.296c-15.706 0-28.748-4.6794-39.124-14.038-10.376-9.3587-16.296-21.484-17.761-36.377z"/>
   <path id="path3456" d="m415.01 2997.9v21.118h-118.29c-0.16277-5.2897 0.69172-10.376 2.5635-15.259 3.0111-8.0566 7.8328-15.991 14.465-23.804 6.6325-7.8124 16.215-16.846 28.748-27.1 19.45-15.95 32.593-28.585 39.429-37.903 6.8358-9.3179 10.254-18.127 10.254-26.428-0.0001-8.7076-3.1129-16.052-9.3384-22.034-6.2257-5.9813-14.343-8.972-24.353-8.9722-10.579 0.0002-19.043 3.174-25.391 9.5215-6.3477 6.3478-9.5622 15.137-9.6436 26.367l-22.583-2.3194c1.5462-16.846 7.3649-29.683 17.456-38.513 10.091-8.8296 23.641-13.244 40.649-13.245 17.171 0.0002 30.762 4.7609 40.771 14.282 10.01 9.5216 15.015 21.322 15.015 35.4-0.00013 7.1616-1.465 14.201-4.3945 21.118-2.9298 6.9174-7.7923 14.201-14.587 21.851-6.7953 7.6498-18.087 18.148-33.875 31.494-13.184 11.068-21.647 18.575-25.391 22.522-3.7435 3.947-6.836 7.9143-9.2774 11.902z"/>
  </g>
 </g>
</svg>
